<svg width="79" height="100" viewBox="0 0 79 100" fill="none" xmlns="http://www.w3.org/2000/svg">
<path d="M17.851 57.1423H46.4224V64.2852H17.851V57.1423ZM17.851 39.2852H60.7081V46.428H17.851V39.2852ZM17.851 74.9994H35.7081V82.1423H17.851V74.9994Z" fill="#009640"/>
<path d="M71.4286 10.7143H60.7143V7.14286C60.7143 5.24845 59.9617 3.43164 58.6222 2.09209C57.2826 0.752549 55.4658 0 53.5714 0H25C23.1056 0 21.2888 0.752549 19.9492 2.09209C18.6097 3.43164 17.8571 5.24845 17.8571 7.14286V10.7143H7.14286C5.24845 10.7143 3.43164 11.4668 2.09209 12.8064C0.752549 14.1459 0 15.9627 0 17.8571V92.8571C0 94.7515 0.752549 96.5684 2.09209 97.9079C3.43164 99.2475 5.24845 100 7.14286 100H71.4286C73.323 100 75.1398 99.2475 76.4793 97.9079C77.8189 96.5684 78.5714 94.7515 78.5714 92.8571V17.8571C78.5714 15.9627 77.8189 14.1459 76.4793 12.8064C75.1398 11.4668 73.323 10.7143 71.4286 10.7143ZM25 7.14286H53.5714V21.4286H25V7.14286ZM71.4286 92.8571H7.14286V17.8571H17.8571V28.5714H60.7143V17.8571H71.4286V92.8571Z" fill="#009640"/>
</svg>
