<svg width="100" height="100" viewBox="0 0 100 100" fill="none" xmlns="http://www.w3.org/2000/svg">
<path d="M50.0046 20C44.7898 20.0066 39.7905 22.0811 36.1031 25.7685C32.4157 29.4559 30.3412 34.4552 30.3346 39.67H40.3346C40.3346 34.335 44.6746 30 50.0046 30C55.3346 30 59.6746 34.335 59.6746 39.67C59.6746 42.66 57.2696 44.83 53.5946 47.8C52.394 48.7405 51.2409 49.7401 50.1396 50.795C45.1496 55.78 45.0046 61.075 45.0046 61.665V65H55.0046L54.9996 61.835C55.0046 61.755 55.1646 59.905 57.2046 57.87C57.9546 57.12 58.8996 56.37 59.8796 55.58C63.7746 52.425 69.6696 47.66 69.6696 39.67C69.6656 34.4553 67.5927 29.4552 63.9058 25.7674C60.2189 22.0795 55.2193 20.0053 50.0046 20ZM45.0046 70H55.0046V80H45.0046V70Z" fill="#009640"/>
<path d="M50 0C22.43 0 0 22.43 0 50C0 77.57 22.43 100 50 100C77.57 100 100 77.57 100 50C100 22.43 77.57 0 50 0ZM50 90C27.945 90 10 72.055 10 50C10 27.945 27.945 10 50 10C72.055 10 90 27.945 90 50C90 72.055 72.055 90 50 90Z" fill="#009640"/>
</svg>
