<svg width="105" height="105" viewBox="0 0 105 105" fill="none" xmlns="http://www.w3.org/2000/svg">
<path d="M52.5 35L39.375 42.6562V57.9688L52.5 65.625L65.625 57.9688V42.6562L52.5 35ZM59.1369 43.925L52.4431 47.8275L45.8063 43.9556L52.5 40.0531L59.1369 43.925ZM43.7062 47.7838L50.1988 51.5725V59.2288L43.7062 55.4444V47.7838ZM54.53 59.3906V51.66L61.2938 47.7138V55.4444L54.53 59.3906ZM13.125 0L0 7.65625V22.9688L13.125 30.625L26.25 22.9688V7.65625L13.125 0ZM19.7619 8.925L13.0681 12.8275L6.43125 8.95563L13.125 5.05312L19.7619 8.925ZM4.33125 12.7794L10.8238 16.5681V24.2244L4.33125 20.4487V12.7794ZM15.155 24.3863V16.66L21.9188 12.7137V20.4444L15.155 24.3863ZM13.125 74.375L0 82.0312V97.3438L13.125 105L26.25 97.3438V82.0312L13.125 74.375ZM19.7619 83.3L13.0681 87.2025L6.43125 83.3306L13.125 79.4281L19.7619 83.3ZM4.33125 87.1588L10.8238 90.9475V98.6038L4.33125 94.8238V87.1588ZM15.155 98.7656V91.035L21.9188 87.0888V94.8194L15.155 98.7656ZM91.875 0L78.75 7.65625V22.9688L91.875 30.625L105 22.9688V7.65625L91.875 0ZM98.5119 8.925L91.8181 12.8275L85.1813 8.95563L91.875 5.05312L98.5119 8.925ZM83.0813 12.7837L89.5738 16.5725V24.2288L83.0813 20.4444V12.7837ZM93.905 24.3906V16.66L100.669 12.7137V20.4444L93.905 24.3906ZM91.875 74.375L78.75 82.0312V97.3438L91.875 105L105 97.3438V82.0312L91.875 74.375ZM98.5119 83.3L91.8181 87.2025L85.1813 83.3306L91.875 79.4281L98.5119 83.3ZM83.0813 87.1588L89.5738 90.9475V98.6038L83.0813 94.8194V87.1588ZM93.905 98.7656V91.035L100.669 87.0888V94.8194L93.905 98.7656ZM39.375 13.125H65.625V17.5H39.375V13.125ZM39.375 87.5H65.625V91.875H39.375V87.5ZM15.3125 39.375V65.625H10.9375V39.375H15.3125ZM31.9069 38.6225L22.6275 29.3431L25.7206 26.25L35 35.525L31.9069 38.6225ZM70 36.2819L79.2794 27.0025L82.3725 30.0956L73.0931 39.375L70 36.2819ZM35.56 65.0956L26.2806 74.375L23.1875 71.2819L32.4669 62.0025L35.56 65.0956ZM73.8456 61.8144L83.125 71.0938L80.0319 74.1869L70.7525 64.9075L73.8456 61.8144ZM94.0625 39.375V65.625H89.6875V39.375H94.0625Z" fill="#266e73"/>
</svg>
