<svg width="109" height="87" viewBox="0 0 109 87" fill="none" xmlns="http://www.w3.org/2000/svg">
<path d="M54.0192 20.8735C39.3525 20.8735 27.3525 32.8735 27.3525 47.5402V74.2069H80.6859V47.5402C80.6859 32.8735 68.6859 20.8735 54.0192 20.8735ZM54.0192 26.2069C61.7525 26.2069 68.5259 30.3669 72.2592 36.5535C71.1125 36.7402 69.9125 36.8735 68.6859 36.8735C60.9525 36.8735 54.1792 32.7135 50.4459 26.5269C51.5925 26.3402 52.7925 26.2069 54.0192 26.2069ZM43.5659 28.9535C41.8832 33.9683 38.4074 38.1849 33.8059 40.7935C35.4885 35.7787 38.9643 31.5622 43.5659 28.9535ZM32.6859 47.1669C39.6192 44.5535 45.1925 39.1935 47.9925 32.3669C50.4937 35.4419 53.6488 37.9206 57.2284 39.6228C60.8081 41.325 64.7221 42.2077 68.6859 42.2069C70.6859 42.2069 72.6059 41.9669 74.4725 41.5669C75.0325 43.4602 75.3525 45.4602 75.3525 47.5402C75.3525 59.3002 65.7792 68.8735 54.0192 68.8735C42.2592 68.8735 32.6859 59.3002 32.6859 47.5402V47.1669ZM32.6859 68.8735V63.5402C34.2059 65.5402 36.0192 67.3535 38.0192 68.8735H32.6859ZM75.3525 68.8735H70.0192C72.0192 67.3535 73.8325 65.5402 75.3525 63.5402V68.8735ZM58.6859 50.2069C58.6859 49.3228 59.0371 48.475 59.6622 47.8498C60.2873 47.2247 61.1352 46.8735 62.0192 46.8735C62.9033 46.8735 63.7511 47.2247 64.3762 47.8498C65.0014 48.475 65.3525 49.3228 65.3525 50.2069C65.3525 51.0909 65.0014 51.9388 64.3762 52.5639C63.7511 53.189 62.9033 53.5402 62.0192 53.5402C61.1352 53.5402 60.2873 53.189 59.6622 52.5639C59.0371 51.9388 58.6859 51.0909 58.6859 50.2069ZM42.6859 50.2069C42.6859 49.3228 43.0371 48.475 43.6622 47.8498C44.2873 47.2247 45.1352 46.8735 46.0192 46.8735C46.9033 46.8735 47.7511 47.2247 48.3762 47.8498C49.0014 48.475 49.3525 49.3228 49.3525 50.2069C49.3525 51.0909 49.0014 51.9388 48.3762 52.5639C47.7511 53.189 46.9033 53.5402 46.0192 53.5402C45.1352 53.5402 44.2873 53.189 43.6622 52.5639C43.0371 51.9388 42.6859 51.0909 42.6859 50.2069Z" fill="black"/>
</svg>
