<svg width="109" height="87" viewBox="0 0 109 87" fill="none" xmlns="http://www.w3.org/2000/svg">
<path d="M49.5918 50.2069C49.5918 50.6446 49.5056 51.0781 49.3381 51.4825C49.1705 51.8869 48.925 52.2544 48.6155 52.5639C48.306 52.8734 47.9385 53.1189 47.5341 53.2865C47.1297 53.454 46.6962 53.5402 46.2585 53.5402C45.3744 53.5402 44.5266 53.189 43.9014 52.5639C43.2763 51.9388 42.9251 51.0909 42.9251 50.2069C42.9251 49.3228 43.2763 48.475 43.9014 47.8498C44.5266 47.2247 45.3744 46.8735 46.2585 46.8735C46.6962 46.8735 47.1297 46.9598 47.5341 47.1273C47.9385 47.2948 48.306 47.5403 48.6155 47.8498C48.925 48.1594 49.1705 48.5268 49.3381 48.9313C49.5056 49.3357 49.5918 49.7691 49.5918 50.2069ZM62.2585 46.8735C61.3744 46.8735 60.5266 47.2247 59.9014 47.8498C59.2763 48.475 58.9251 49.3228 58.9251 50.2069C58.9251 51.0909 59.2763 51.9388 59.9014 52.5639C60.5266 53.189 61.3744 53.5402 62.2585 53.5402C63.1425 53.5402 63.9904 53.189 64.6155 52.5639C65.2406 51.9388 65.5918 51.0909 65.5918 50.2069C65.5918 49.3228 65.2406 48.475 64.6155 47.8498C63.9904 47.2247 63.1425 46.8735 62.2585 46.8735ZM80.9251 47.5402C80.9251 54.6126 78.1156 61.3954 73.1146 66.3964C68.1137 71.3974 61.3309 74.2069 54.2585 74.2069C50.7565 74.2069 47.2889 73.5171 44.0536 72.177C40.8182 70.8369 37.8785 68.8726 35.4023 66.3964C30.4013 61.3954 27.5918 54.6126 27.5918 47.5402C27.5918 40.4678 30.4013 33.685 35.4023 28.684C40.4033 23.6831 47.186 20.8735 54.2585 20.8735C57.7604 20.8735 61.228 21.5633 64.4634 22.9034C67.6987 24.2435 70.6384 26.2078 73.1146 28.684C75.5909 31.1602 77.5551 34.1 78.8953 37.3353C80.2354 40.5707 80.9251 44.0383 80.9251 47.5402ZM50.6851 26.5269C54.4185 32.7135 61.1918 36.8735 68.9251 36.8735C70.1518 36.8735 71.3518 36.7402 72.4985 36.5535C68.7651 30.3669 61.9918 26.2069 54.2585 26.2069C53.0318 26.2069 51.8318 26.3402 50.6851 26.5269ZM34.0451 40.7935C38.6467 38.1849 42.1225 33.9683 43.8051 28.9535C39.2036 31.5622 35.7278 35.7787 34.0451 40.7935ZM75.5918 47.5402C75.5918 45.4602 75.2718 43.4602 74.7118 41.5669C72.8451 41.9669 70.9251 42.2069 68.9251 42.2069C64.9614 42.2077 61.0473 41.325 57.4677 39.6228C53.8881 37.9206 50.7329 35.4419 48.2318 32.3669C46.8316 35.7515 44.7502 38.812 42.117 41.358C39.4837 43.9041 36.355 45.8813 32.9251 47.1669V47.5402C32.9251 59.3002 42.4985 68.8735 54.2585 68.8735C66.0185 68.8735 75.5918 59.3002 75.5918 47.5402Z" fill="black"/>
</svg>
