<svg width="109" height="87" viewBox="0 0 109 87" fill="none" xmlns="http://www.w3.org/2000/svg">
<g clip-path="url(#clip0_1450_7859)">
<path d="M4.33203 47.8449C4.33203 47.8449 5.74206 44.2145 8.56212 43.9095C11.3822 43.6044 13.2009 45.8823 13.2009 45.8823C13.2009 45.8823 12.1485 46.106 10.105 47.9771C8.06145 49.8482 5.90554 49.1262 4.64878 48.6991C4.64878 48.6991 7.2747 49.0449 9.073 46.5128C9.073 46.5128 6.38577 48.15 4.33203 47.8449Z" fill="black"/>
<path d="M4.74059 33.9438C4.74059 33.9438 5.04712 35.2862 2.14532 37.7979C-0.766691 40.3097 0.908994 44.3773 1.69575 45.9434C1.69575 45.9434 1.2053 44.1536 2.77881 41.774C4.35232 39.3945 4.65885 38.3776 4.65885 38.3776C4.65885 38.3776 4.57711 39.9639 3.351 41.9469C2.12489 43.9401 1.87967 47.3772 4.0458 50.5703C4.0458 50.5703 2.56425 48.0789 4.99603 44.9366C7.42782 41.7944 8.49045 41.8046 8.13284 39.1504C7.77522 36.4963 4.74059 33.9438 4.74059 33.9438Z" fill="black"/>
<path d="M106.14 38.9881C106.14 38.9881 103.851 42.1405 101.042 41.7338C98.2317 41.327 97.0566 38.6627 97.0566 38.6627C97.0566 38.6627 98.1295 38.7135 100.582 37.4119C103.034 36.1103 104.934 37.3509 106.038 38.0831C106.038 38.0831 103.586 37.0967 101.205 39.1C101.205 39.1 104.219 38.1847 106.14 38.9983V38.9881Z" fill="black"/>
<path d="M102.237 52.3399C102.237 52.3399 102.278 50.9671 105.721 49.2689C109.165 47.5706 108.572 43.2081 108.225 41.4997C108.225 41.4997 108.245 43.3504 106.12 45.2622C103.995 47.174 103.443 48.0791 103.443 48.0791C103.443 48.0791 103.923 46.5639 105.609 44.947C107.295 43.3301 108.409 40.0557 107.111 36.4253C107.111 36.4253 107.918 39.2116 104.771 41.642C101.624 44.0725 100.592 43.7979 100.275 46.452C99.9586 49.1062 102.237 52.3399 102.237 52.3399Z" fill="black"/>
<path d="M71.839 80.0807C71.9616 79.9281 72.074 79.7654 72.1761 79.6027C72.7483 78.657 72.8914 77.3757 72.2477 76.4808C71.9922 76.1249 71.6346 75.8503 71.42 75.4842C71.0522 74.8334 71.5529 74.5385 71.6142 73.9589C71.9411 73.5216 72.5542 73.5623 72.9016 73.1047V72.1691C73.7088 71.6607 74.0766 70.8166 74.5977 70.0946C74.516 69.5353 75.2721 69.0269 74.7203 68.4269C75.3129 67.9489 75.3742 67.1456 75.7932 66.6676C75.8545 66.4337 75.7421 66.3829 75.6297 66.2507C75.5479 66.0982 75.8851 66.0677 75.8238 65.8643C75.7932 65.7422 75.7625 65.5694 75.9158 65.4575C76.2427 65.3762 76.3347 65.6812 76.5799 65.8541H77.4791C78.1023 65.5592 78.0819 64.8169 78.5724 64.3796C79.3796 64.2982 79.9926 63.9423 80.0743 62.9864C80.0948 62.7322 80.2889 62.5288 80.6057 62.5593C80.9122 62.5898 81.0552 62.3865 81.1778 62.1526C81.1778 61.8475 80.8713 61.7661 80.7283 61.5628C80.81 61.4916 80.8815 61.4102 80.9939 61.3085C81.4128 61.4102 81.9033 61.7255 82.2711 61.0848C82.2711 60.6882 82.404 60.2103 82.0055 59.8137C81.2187 59.2544 80.3911 58.6951 80.5137 57.4748C81.2187 57.3934 81.7807 57.7087 82.455 57.8307C82.4959 57.79 82.5981 57.6985 82.7411 57.5663V56.6714C82.9761 56.468 83.2929 56.6918 83.4666 56.407C83.579 56.224 83.7527 56.0714 84.049 56.0918C84.1001 55.2884 84.1103 54.4851 83.7425 53.6309C84.1205 53.7529 84.0388 53.9359 84.1001 54.0478C84.5803 54.119 85.0094 54.4851 85.551 54.3224C85.8575 53.997 85.7553 53.4682 86.0721 53.1224C85.8984 52.98 85.7655 52.8275 85.8371 52.6241C85.4999 52.4818 85.3875 52.736 85.316 52.797C84.9686 52.797 84.9175 52.5733 84.7642 52.4818C84.897 52.1767 85.2649 52.5224 85.4079 52.2377C85.3466 52.1665 85.2649 52.0852 85.1934 52.0038C85.1014 51.7191 85.3671 51.4954 85.4692 51.353C85.8166 50.8954 86.256 50.4581 86.7362 50.153C87.1143 49.909 87.3493 49.6039 87.5843 49.2073C88.0441 49.6141 88.5958 49.4209 89.076 49.4717C89.4745 49.1565 89.495 48.648 89.8832 48.4751C89.8832 48.0989 89.5767 48.0175 89.4439 47.804C89.4439 47.5599 89.3519 47.2854 89.6687 47.1532C89.6687 46.8074 89.2906 46.5837 89.4847 46.0956L88.5856 45.2007C89.7606 43.7058 89.638 43.8177 88.7695 42.0178C88.8002 41.9873 88.841 41.9466 88.841 41.9466C89.0454 42.1398 89.3826 42.0991 89.5358 42.3635C89.7606 42.0076 90.1387 42.1906 90.4452 42.1296C90.4759 41.8144 90.8437 41.6212 90.7619 41.2653C90.7415 41.011 90.4963 40.9297 90.3737 40.7568C90.2 40.5026 90.4554 40.167 90.2102 39.9331C90.1285 40.0043 90.0569 40.0755 89.9752 40.1467C89.7913 40.0145 89.9037 39.8111 89.8526 39.6484C89.9037 39.5873 89.9548 39.4857 89.9956 39.4958C90.2613 39.5162 90.4554 39.4246 90.6904 39.2518C90.9356 39.0687 90.8846 38.6721 91.1809 38.6111C91.4772 38.5501 91.5589 38.2857 91.7735 38.1637L92.1209 38.5094C92.4172 38.2145 93.3266 35.7739 93.1835 35.7739L91.2013 36.2214C92.4172 35.3672 92.9792 33.7096 92.55 32.3063C92.2435 32.713 91.702 32.9469 91.1911 32.8961L91.8654 29.5098L89.7913 28.3708L90.2715 27.7404C88.8615 28.1268 87.2471 26.9065 87.2573 25.4421L89.5971 21.9948L87.3186 24.7303L87.1858 24.1405C86.4399 24.1812 86.1027 23.2151 86.0516 22.4728C86.0005 21.7304 85.8166 20.7745 85.081 20.6423L86.1027 20.7034C85.2751 20.3779 84.4475 20.0525 83.6096 19.7271C84.0081 19.4627 83.6812 18.7 83.2214 18.7916L83.7322 17.1238C82.1076 16.8289 80.7283 15.4663 80.4217 13.8494C80.3809 13.5952 80.3298 13.3308 80.2889 13.0765C80.013 13.0257 79.7372 12.9748 79.4613 12.9138C79.9109 12.4359 80.0028 11.7037 79.8496 11.0631C79.6963 10.4224 79.3182 9.8631 78.93 9.33431C78.3374 8.53095 77.4382 7.66658 76.4777 7.98182L76.396 7.43269L75.599 7.40218C75.4458 7.09711 75.3436 6.84288 75.3436 6.5073C74.1788 6.69035 72.9016 6.5073 72.1353 5.5209C71.5018 4.70737 71.7572 4.42264 70.6639 4.42264C70.0202 4.76839 69.5298 5.23617 69.3254 6.03953C69.1109 5.8158 69.0189 5.71411 68.9167 5.61242C68.9882 5.13448 69.4991 4.78873 69.3459 4.25993C69.1109 4.17858 69.0189 4.57518 68.7635 4.37179C68.6102 4.14807 68.7328 3.88368 68.6817 3.56844C68.2832 3.5481 67.8745 3.38539 67.4352 3.75148C67.3432 3.61928 67.2513 3.47691 67.1491 3.32438C66.9345 3.16167 66.6484 3.43624 66.4849 3.21252V2.64305C66.9958 2.67356 67.3534 2.93795 67.7213 3.33455C67.9154 2.53119 67.711 1.89054 67.2308 1.24988C67.1695 1.43293 67.1184 1.56513 67.0673 1.71766H66.3317C66.1988 1.64648 66.2499 1.52445 66.2397 1.41259C66.0251 1.14819 65.9945 1.6058 65.831 1.52445C65.6471 1.55496 65.5756 1.40242 65.4734 1.3109C65.0238 1.738 64.4619 1.78885 63.9101 1.738C63.3175 2.28713 62.684 2.34815 62.0709 1.90071C61.7848 1.68715 61.5192 1.78885 61.2433 1.74817C61.0287 1.81935 61.2024 2.10409 60.9981 2.19561C60.9266 2.19561 60.855 2.19561 60.7733 2.19561C60.5587 2.01257 60.8755 1.99223 60.7937 1.75834C60.712 1.63631 60.4974 1.79901 60.3033 1.78885C60.2726 1.81935 60.2522 1.83969 60.2215 1.8702C60.6711 2.13459 60.2215 2.73457 60.6609 3.00914C60.1296 3.49725 59.3122 3.5481 59.0363 4.17858C58.7298 4.22943 58.6583 4.07689 58.5459 3.98537C58.4641 4.05655 58.3926 4.12774 58.27 4.22943C58.2291 3.99554 58.1882 3.80232 58.1474 3.56844H57.3913C57.1052 4.25993 56.298 4.67687 56.3695 5.51073C56.1243 5.57175 56.0017 5.51073 55.8586 5.28701C55.7054 5.5209 55.6645 5.88699 55.4295 5.9175C55.1638 5.95817 55.031 6.24291 54.7654 6.20223C54.4282 5.98868 54.9084 5.95817 54.8369 5.80564C54.9084 5.58192 54.6223 5.53107 54.6121 5.30735C54.8777 5.04295 54.7245 4.57518 55.0514 4.30061C55.0923 4.2701 55.0821 4.11757 55.0514 4.08706C54.8164 3.92435 54.8675 3.77182 55.031 3.60911C54.7654 3.52776 54.9288 3.19218 54.7143 3.08032C54.4895 2.9888 54.4077 3.22269 54.2545 3.2837C54.1523 3.19218 54.0706 3.04981 53.7742 3.10066C53.7334 3.16167 53.621 3.31421 53.4779 3.51759C53.4984 3.76165 53.9275 4.03621 53.6108 4.4023H53.3758C53.1101 4.25993 53.4166 3.89385 53.1203 3.73114C53.0692 3.86334 53.0284 3.99554 52.9568 4.18875C52.3744 4.18875 51.8125 3.79216 51.1994 3.99554C50.5148 3.49725 50.3411 2.81592 50.3514 2.08375C50.5251 1.88037 50.7907 1.67699 51.0564 1.61597C51.1585 1.59563 51.7716 1.57529 51.5162 1.29056C51.4038 1.16853 50.9235 1.26005 50.7907 1.29056C50.5966 1.35157 50.1777 1.64648 50.1368 1.86003C50.004 2.62271 50.3207 3.31421 50.4842 4.13791C50.4433 4.22943 50.239 4.38196 50.3105 4.67687C49.7383 4.52433 49.5339 4.14807 49.3705 3.75148C48.771 4.01588 48.3862 4.29722 48.2159 4.59551C48.1648 4.54467 48.1137 4.49382 48.0524 4.43281C47.7356 4.4023 48.0217 4.75822 47.8174 4.7989C47.6028 4.91076 47.4802 4.75822 47.3474 4.61585C47.2656 4.68704 47.1941 4.74805 47.1737 4.76839C47.0306 4.6667 46.8876 4.56501 46.7854 4.49382C46.7445 4.14807 46.9795 4.19892 47.1328 4.13791C47.2554 4.07689 47.3474 3.94469 47.4598 3.83283C47.2248 3.58877 47.0715 3.75148 46.908 3.93452C46.7445 3.59894 46.4993 3.30404 46.53 2.90745C45.9782 2.71423 45.498 2.41933 45.1302 1.95155C45.0382 2.0329 44.9667 2.09392 44.8747 2.18544C44.5375 2.17527 44.3945 1.96172 44.3128 1.63631C44.7521 1.42276 45.1812 1.20921 45.641 0.975318C45.6921 0.73126 45.7228 0.456694 45.59 0.182129C45.3958 0.253313 45.4776 0.426187 45.3958 0.568554C44.7725 0.599062 44.3638 1.0465 43.853 1.36174C43.9551 1.48377 44.0267 1.55496 44.088 1.62614C43.9245 1.86003 43.6384 1.6058 43.4749 1.78885C43.3114 2.07358 43.5771 2.17527 43.761 2.40916H45.1812C45.3141 3.02947 44.5784 2.78542 44.5682 3.19218C44.6193 3.25319 44.6908 3.33455 44.7725 3.43624C44.0267 3.76165 43.5669 2.69389 42.6677 3.27353C42.6371 3.30404 42.586 3.35489 42.5349 3.40573C42.8108 3.74131 42.9538 3.32438 43.1786 3.29387C44.0164 3.58877 43.9858 4.45315 44.323 5.04295C44.323 5.29718 44.0982 5.34803 43.9654 5.56158C43.5464 5.25651 43.0866 5.20566 42.5655 5.66327C42.5655 5.12431 42.3714 4.7989 42.1875 4.32095C42.0547 4.55484 41.9525 4.73788 41.8503 4.92092C41.3599 4.74805 40.992 4.46332 40.5527 4.70737C40.6242 5.04295 40.9818 5.01245 41.176 5.17515C41.1044 5.33786 40.9307 5.26667 40.8183 5.32769C40.6651 5.49039 40.7877 5.68361 40.7366 5.85648C40.6038 6.03952 40.287 5.9175 40.1951 6.18189C40.0929 6.0802 39.9805 5.97851 39.8681 5.86665C39.9294 5.79547 39.9907 5.71411 40.0827 5.61242C39.8988 5.45989 39.7046 5.29718 39.5003 5.13448C39.3879 5.226 39.2448 5.30735 39.0609 5.08363C38.9996 5.01245 38.7135 4.99211 38.55 5.14464C38.5705 5.41921 38.8974 5.17515 38.9383 5.45989C38.5194 5.45989 38.172 5.64293 37.9472 5.97851C37.6202 5.86665 37.4057 5.61242 37.0378 5.74462C36.9663 5.82597 36.8743 5.93783 36.7415 6.0802C36.9765 6.26325 37.2728 6.11071 37.6202 6.2124C37.4363 6.7717 38.0085 7.22931 37.8246 7.79878C37.9983 8.06317 38.2639 7.84962 38.4785 8.01233V8.80552C38.0698 8.7445 37.7428 9.12076 37.2422 9.04958C37.0991 8.28689 36.2715 7.99199 35.9548 7.30049C35.73 7.35134 35.9343 7.64624 35.6176 7.72759C35.3724 7.43269 35.0147 7.14796 34.4017 6.81238C34.2995 6.78187 33.9623 6.80221 33.666 7.01576C33.5741 6.92424 33.5025 6.85305 33.4106 6.76153C33.7273 6.49713 33.4617 6.00902 33.8193 5.75479C33.6865 5.15481 33.2164 4.7989 32.8077 4.38196C32.491 4.37179 32.2662 4.76839 31.8984 4.60568C31.7758 5.12431 31.3058 5.49039 31.3568 6.05986C31.2547 6.25308 30.754 6.07003 30.9788 6.59882C31.3773 6.62933 31.8779 6.53781 32.2151 6.96491C32.3479 7.12762 32.1947 7.24965 32.0516 7.37168C32.1232 7.45303 32.1845 7.52421 32.2662 7.61573C32.0005 7.79878 31.7247 7.71742 31.459 7.68692C31.2751 7.58523 31.4897 7.25982 31.1729 7.26998C30.7744 7.28015 30.9584 7.74793 30.6518 7.8903C31.0197 8.1852 30.7949 8.55129 30.6723 8.78518C30.2942 9.51735 30.4679 10.1275 30.9073 10.7478C30.7744 10.7987 30.6416 10.8393 30.519 10.8902C31.0707 11.3173 31.459 11.9783 32.3275 11.9986C31.8166 12.3749 31.4488 11.9986 31.0912 11.9173C30.846 12.0088 31.0094 12.2935 30.7847 12.3647C30.7438 12.2427 30.6927 12.1105 30.6518 11.9884C30.2738 11.7851 30.0388 11.9986 29.814 12.2732C29.9468 12.3952 30.1103 12.5071 30.0081 12.741C29.7935 12.9545 29.7935 12.4461 29.6403 12.5884C29.1396 12.7003 29.1498 13.0969 29.0477 13.7172C28.9455 13.3104 28.8842 13.0867 28.874 13.0562C28.3426 13.107 28.5777 13.4223 28.3733 13.4833C28.0974 13.646 28.0259 13.2494 27.8011 13.2799C27.3413 13.3409 27.4128 13.8392 27.1574 14.0324C26.902 14.307 26.5648 14.0629 26.3093 14.2053C26.1561 14.3578 25.9926 14.5205 25.8393 14.6731C25.6861 14.9273 25.9313 15.2629 25.6861 15.4968C25.308 15.5578 25.2365 15.1612 24.9504 15.0493C24.6337 15.1409 24.3476 15.4459 23.9491 15.2324C23.7141 15.5171 23.3258 15.6493 23.336 16.0662C23.6017 16.2493 23.6426 15.6391 23.9389 16.0866C23.8571 16.1781 23.7141 16.3408 23.571 16.4933C23.6426 16.5747 23.7039 16.6459 23.7754 16.7272C23.5199 16.951 23.1828 16.7069 22.9069 16.9103C22.9682 16.9815 23.0193 17.0526 23.0908 17.134C23.0602 17.1747 23.0397 17.2459 22.9886 17.2764C22.7536 17.4289 22.5288 17.5916 22.2734 17.6933C21.8749 17.856 21.6603 18.1001 21.5479 18.5272C21.3027 19.4322 21.2721 19.422 21.5479 20.0119C21.4049 20.3373 21.0371 20.3678 20.751 20.5406C20.6386 20.439 20.4853 20.2864 20.3014 20.1135C19.8416 20.3068 19.3512 20.4796 18.8914 20.7034C18.4111 20.9372 18.3294 21.5881 17.8083 21.7813V22.7677C18.2988 22.4524 18.9425 22.6863 19.3716 22.1779C19.2081 21.8626 19.0344 21.527 18.8709 21.2016C19.3205 20.7745 19.8314 20.744 20.3729 20.8254C20.5058 21.1203 20.9962 20.9067 21.0268 21.4355C20.9553 21.5982 20.7101 21.9135 21.1597 22.2592C20.9553 22.3609 20.7612 22.4626 20.6079 22.5338C20.751 22.8389 20.9349 22.7575 21.0779 22.8592C20.9247 23.1744 20.8429 23.5507 20.6079 23.6626C20.3014 23.7032 20.2503 23.6219 20.2299 23.4999C20.2197 23.4287 20.1992 23.3677 20.1481 23.1948C19.9642 23.5507 19.6679 23.4287 19.4023 23.4999C19.3001 23.7642 19.2286 24.049 18.8709 24.1812C18.9629 24.5981 18.7177 25.0354 19.1059 25.371C18.8198 25.5947 18.4929 25.3405 18.2272 25.5642C18.2885 25.6455 18.3601 25.7167 18.4214 25.7981C18.1659 25.9709 17.8083 26.0116 17.7163 26.3472C17.4405 26.2862 17.6346 25.9913 17.4405 25.9201C17.2259 26.093 17.3383 26.3065 17.3689 26.5099C17.4507 26.6726 17.6755 26.4896 17.747 26.6929C17.6857 26.7845 17.604 26.8963 17.4916 27.0692C17.747 27.3234 17.9922 27.5777 18.2272 27.8217C18.2272 28.2386 17.9616 28.3302 17.655 28.3912C17.4098 29.0522 17.3179 29.7843 16.9194 30.2521C16.8274 30.7504 17.2872 31.0046 17.0726 31.4012C16.7559 31.6046 16.3574 31.33 16.01 31.5538C15.8874 32.3063 16.48 32.6927 16.9398 33.191C16.572 33.8011 16.6946 34.4926 16.6639 35.1638C16.1326 35.2858 16.4085 34.5231 15.9691 34.574C15.6013 34.6655 15.8567 34.9502 15.775 35.1333C16.0407 35.3977 16.2961 35.6621 16.5515 35.9163C16.7355 35.957 16.9296 35.8451 17.1339 36.0485C16.9296 36.6688 16.5413 37.2993 16.6844 38.001C16.5924 38.1942 16.4085 38.1027 16.245 38.2247C16.0917 38.8653 16.8274 39.2823 16.6844 40.0145C17.042 39.6687 16.7763 39.3433 16.9909 39.0281C17.6244 38.9975 18.3192 39.6484 19.014 38.8755C19.0549 39.3128 19.4227 39.4755 19.3409 39.8416C19.014 40.0653 18.452 39.6484 18.2783 40.2585C18.1455 40.6246 18.3192 40.9805 18.5848 41.4585C18.7483 41.6008 19.1877 41.5907 19.5146 41.9771C19.4738 42.2822 19.7292 42.5974 19.8416 43.0347C19.6066 43.2889 19.3716 43.5533 19.1264 43.8177V44.7736C19.2592 44.8753 19.4329 45.0075 19.5862 45.1193C19.4431 45.6278 19.1979 46.0142 18.8096 46.3091C18.217 46.0651 18.5542 45.5058 18.4316 45.1092C18.2783 45.0176 18.2272 44.7939 17.9105 44.7939C17.5835 45.1804 17.4916 45.6685 17.604 46.2888C17.7368 46.4006 17.9309 46.5735 18.1659 46.7769H18.9527C19.4533 46.2786 19.954 45.7803 20.4649 45.2719C20.4649 44.9668 20.1686 44.7838 19.9438 44.6516C19.6986 44.5092 19.4533 44.4075 19.3001 44.1736C19.627 43.3703 20.5466 43.4109 20.9451 42.872C21.129 43.0652 21.3129 43.2584 21.5582 43.5228C21.3232 43.8584 21.0166 44.2855 20.7305 44.6821C20.8634 45.099 21.2108 45.3736 21.456 45.7091C21.7319 46.0956 22.069 46.543 21.5071 47.021C21.7421 47.3057 21.9158 47.5904 22.2427 47.6819C22.6106 47.7836 22.4573 48.3531 22.9478 48.3734C23.3054 48.3734 23.3156 48.8311 23.4382 49.0039C23.7243 49.0548 23.7958 48.9022 23.9082 48.8107C24.1534 49.5022 24.9606 49.7768 25.1241 50.5293H27.045C27.515 51.2106 27.8931 51.892 28.1076 52.7868C27.6887 52.614 27.3311 52.4004 27.0348 52.7868C26.8611 52.4818 26.5137 52.6038 26.2072 52.5224C26.6363 52.1869 26.432 51.8309 26.4933 51.5055C25.9722 51.3835 25.9006 51.8411 25.6248 51.9835C25.8393 52.3496 25.9313 52.7868 26.5954 53.0411H27.7398C28.1076 53.4783 28.4448 53.8953 28.1179 54.5257C28.3631 54.8613 28.4448 55.4816 29.1907 55.4918C29.0885 55.9189 28.8535 56.2443 28.9148 56.6511C28.9761 57.0375 28.9251 57.4544 28.9251 57.8917C28.6287 57.9019 28.3835 57.9121 28.2098 57.9222C27.8931 58.207 27.6172 58.451 27.372 58.6747V59.1527C27.4435 59.1832 27.5048 59.2442 27.5661 59.2442C27.9646 59.2442 28.312 59.1222 28.4653 58.7357C28.5572 58.512 28.8024 58.5222 28.9046 58.512C29.4564 58.4612 29.8549 58.1968 30.2738 57.79C30.1716 57.4849 30.0796 57.1595 29.8549 56.9562C29.5892 56.0308 30.1409 55.2376 30.0183 54.2512C30.5394 54.8918 30.6212 55.5528 30.9175 56.1223C30.989 56.346 30.6314 56.3664 30.7131 56.6409C30.9992 57.0477 31.3262 57.5053 31.6225 57.9426C31.3568 58.3798 31.2955 57.6782 31.0912 57.9222C30.6416 58.0951 30.7029 58.6849 30.2636 58.8679V59.8442C30.4066 59.956 30.611 60.1187 30.846 60.3018C30.846 60.3018 30.9277 60.2408 31.0299 60.1594C31.3262 60.0476 31.4692 60.4543 31.7758 60.4137C31.7962 60.6069 31.8064 60.7899 31.8473 60.9526C31.8779 61.0441 31.9801 61.1153 32.0414 61.1865C31.9801 61.4814 31.6736 61.6746 31.8371 62.061C32.4297 62.4678 32.6647 63.1491 32.869 63.8508C32.4706 63.9728 33.3186 64.4101 32.634 64.4304C33.3595 64.9897 33.2164 65.9355 33.8091 66.4643C33.7273 66.6168 33.5434 66.5456 33.288 66.7083C33.5536 66.7592 33.7784 66.81 33.993 66.8609C33.9215 66.9422 33.8602 67.0134 33.7886 67.0947V68.4777C33.9419 68.5896 34.1258 68.7116 34.2484 68.8031V69.7692C35.1067 71.4166 35.873 72.881 36.6496 74.3555C36.6904 74.3555 36.7619 74.3555 36.8335 74.3555C37.0174 74.4978 36.8948 74.7012 36.9356 74.8741C37.3444 74.9554 37.4159 75.4842 37.8246 75.5758V76.0842C38.1618 76.0944 38.4887 76.2266 38.8361 76.4198C38.9587 76.7147 39.204 77.0096 39.5309 77.2333C39.7046 77.2638 39.909 77.152 40.052 77.3452C39.9805 77.4265 39.909 77.5079 39.8374 77.5791C39.909 77.6808 40.0214 77.6909 40.2155 77.6706C40.2359 78.1485 40.5731 78.535 40.7059 78.9824C41.0636 80.1824 41.1657 81.7077 41.8912 82.684C42.351 83.3043 42.9845 83.8331 43.6384 84.25C44.1901 84.6059 44.8952 84.7076 45.5184 84.9008C47.0409 85.3686 48.6041 85.7143 50.1879 85.9279C53.3553 86.355 56.5841 86.2635 59.7209 85.6737C63.2357 85.0127 66.628 83.7314 69.6626 81.8399C70.4392 81.362 71.2055 80.823 71.7674 80.1315L71.839 80.0807ZM76.7536 51.9326C77.3156 51.8614 77.8673 51.6377 78.2556 51.0988C78.3987 50.5903 78.1023 49.9802 78.4906 49.4615C78.5724 49.3497 78.4702 49.1463 78.3884 48.9633C78.041 48.2107 77.8878 47.4379 78.276 46.6345C78.3169 46.543 78.2556 46.4108 78.3782 46.3396C78.8584 46.5939 78.8074 47.1938 79.1854 47.5497C79.1241 48.4955 79.2876 49.4819 79.0526 50.6005C79.0526 50.5801 79.2263 50.4988 79.3693 50.6005V51.5665L79.073 51.8614C78.9913 51.7903 78.9198 51.7191 78.838 51.6581C78.7256 51.7292 78.6847 51.8716 78.7358 51.9428C78.9913 52.2682 79.0219 52.5021 78.7563 52.8885C78.4702 53.2953 78.3987 53.8444 78.1637 54.302C78.0513 54.5156 78.0002 54.7291 78.1126 54.902C78.5519 55.5732 78.1228 56.1121 77.8265 56.6409C77.571 57.0884 77.1828 57.4646 76.7945 57.9426C76.5697 57.1494 77.1317 56.4884 76.9478 55.7765C76.7638 55.0647 77.2747 54.3935 77.1317 53.6105C76.9988 53.7224 76.9171 53.7834 76.8149 53.8648C76.5697 53.5597 76.9069 53.0817 76.4675 52.8072C76.631 52.7767 76.7332 52.7563 76.9171 52.7156C76.8251 52.4919 76.6208 52.2682 76.7536 51.9225V51.9326ZM41.8094 70.5217C41.6664 70.4302 41.5847 70.2065 41.3599 70.3183C41.0329 69.7997 40.9205 69.1896 40.4709 68.7625C40.3892 68.8337 40.3177 68.8947 40.1848 69.0167C40.1235 68.5998 39.9601 68.2235 40.4403 67.9083C40.1133 67.593 40.0827 67.2473 40.1338 66.8914C39.9703 66.627 39.7251 66.5151 39.4594 66.4032L39.7046 66.1592C39.2448 66.1185 39.2244 65.4575 38.6624 65.6202C38.2435 65.1931 37.9881 64.7152 38.1618 64.105C38.2639 64.0949 38.3355 64.0847 38.407 64.0745C38.7442 64.1965 38.407 64.5728 38.642 64.7152C38.785 64.6033 38.9281 64.5016 38.9792 64.4609C39.0405 64.166 38.8974 64.0847 38.7952 63.9728C39.1324 63.8203 39.4287 63.5661 39.817 63.5966C40.0009 63.5152 39.7966 63.2813 40.0111 63.2203C40.5322 63.383 40.1951 64.1355 40.7059 64.2881C41.1759 64.4304 41.1249 65.0202 41.5949 65.1321C41.789 64.9287 42.024 64.8575 42.259 65.1931C42.7597 64.5423 43.4443 64.2982 44.2106 64.2881C44.4865 64.4203 44.5784 64.7965 44.936 64.7457C45.3141 64.6847 45.3754 65.0914 45.641 65.1931C45.8965 65.2948 46.1315 65.4575 46.3971 65.5287C46.673 65.5999 46.8774 65.9558 47.143 65.8338C47.4189 65.7117 47.5313 66.2812 47.7765 65.9151C48.0115 66.0677 48.2874 66.149 48.5531 66.0677C48.8391 65.9863 49.0231 66.2812 49.3092 66.1795C49.5544 66.0982 49.7792 66.4338 50.0857 66.2812C50.1777 66.1897 50.2696 66.0778 50.3718 65.9761C50.1368 65.8745 49.9324 65.7321 49.8609 65.2846C49.7076 65.549 49.6055 65.7321 49.5135 65.8846C48.972 65.7931 48.6757 65.5592 48.4815 65.183C48.1648 65.1423 48.0626 65.4473 47.848 65.5999C47.3576 65.3253 47.4189 64.6847 46.9795 64.3288C47.2759 64.0644 47.2248 63.6881 47.3474 63.4135C47.7765 63.3627 47.8378 63.8 48.0933 63.8406C48.4304 63.8813 48.3794 63.6576 48.4304 63.4034C48.8187 63.4847 49.2581 63.2 49.6259 63.6169C49.8916 63.1695 50.4842 63.6169 50.7601 63.2C51.087 63.3627 51.0155 63.8 51.322 63.9728C51.6694 63.8305 51.9146 63.6339 52.0577 63.383C52.6503 63.4745 53.3042 63.2305 53.9786 63.6067C54.6325 63.2813 55.3784 63.0779 56.1856 63.1695C56.4002 63.1898 56.6556 63.0779 56.7374 63.4745C56.911 62.9864 57.4219 63.3525 57.6263 62.9763C57.8204 63.1593 58.1372 63.1186 58.3211 63.4135C58.5867 63.0474 58.9852 62.9152 59.3531 62.722C59.6289 62.8644 59.8946 62.9966 60.1602 63.139C60.2931 63.0068 60.4259 62.8746 60.5587 62.7424C60.8244 62.9051 60.9674 63.2508 61.3353 63.261C61.2024 63.5356 60.9061 63.6779 60.8755 64.0644C60.8346 64.5321 60.3135 64.6135 59.9048 64.7253C59.3939 64.8677 59.3939 64.8779 59.4041 65.5592C59.4552 65.6101 59.4961 65.5897 59.5676 65.5084C59.6085 65.4575 59.68 65.427 59.7311 65.3965C59.915 65.3558 59.9968 65.488 60.15 65.6406C60.2522 65.4473 60.3544 65.2541 60.5281 64.9491C60.6507 65.2948 60.6916 65.427 60.7324 65.549C61.09 65.4779 60.7733 65.1321 60.9879 64.9796C61.1411 64.9592 61.3148 64.9389 61.4988 64.9186C61.5498 64.7965 61.6009 64.6643 61.652 64.5423C61.8666 64.4304 61.9892 64.5626 62.1118 64.7152C62.4694 63.983 63.3379 64.0847 63.7875 63.5661C64.2166 63.8711 64.564 64.1355 64.4925 64.6745C64.9012 64.7559 65.2895 64.8575 65.5858 64.4101C65.596 64.1762 65.6062 63.9322 65.6267 63.6881C65.831 63.5966 65.8412 63.8508 65.9536 63.8406C66.2601 63.8711 66.4952 63.6067 66.4747 63.4949C66.3725 63.0271 66.6791 62.6712 66.7506 62.2543C66.8119 61.8983 67.0776 61.5831 67.2717 61.2068H69.0393C69.2743 60.9221 69.5707 60.6679 70.2041 60.5153H70.8683C71.2157 60.9526 71.6142 61.4001 71.7163 62.1017C71.9922 61.7661 72.2783 61.5119 72.6666 61.6034C72.9118 61.2577 72.452 61.1357 72.5338 60.8509C72.8096 60.5967 73.1059 60.3323 73.5249 59.956C72.9833 59.834 72.7585 59.4883 72.3907 59.1628C71.277 59.2544 70.0713 58.9595 68.8759 59.4476C68.4058 58.7561 67.5987 58.4917 67.0673 57.8205C66.5462 58.0341 66.1682 57.4748 65.7697 57.5968C65.4019 57.4138 65.3917 57.129 65.2793 56.9155C65.0545 56.4986 64.8195 56.1528 64.3392 55.9799C63.7057 55.7562 63.3277 55.1766 62.8679 54.7495H61.9075C61.7951 54.8613 61.7235 54.9325 61.6214 55.0342V56.0409C61.8155 56.0409 61.9892 56.0613 62.1629 56.0613C62.3979 56.2952 62.6329 56.5291 62.8781 56.7629C62.9394 57.1799 63.0927 57.5663 63.389 57.9832C63.0927 58.8985 63.8897 59.6103 64.1042 60.5458C63.8692 60.7086 63.6342 60.8814 63.2562 61.156C62.7555 61.156 62.0096 61.1357 61.274 61.156C60.8857 61.1662 60.4872 61.0136 60.1194 61.3492C60.007 61.4611 59.6085 61.4509 59.4859 61.339C59.118 61.0035 58.7196 61.217 58.3517 61.1458C58.2291 61.4001 58.1883 61.6644 57.943 61.7966C57.7285 61.4611 57.238 61.7356 57.0337 61.3797C56.7374 61.8272 56.3491 61.4814 56.0221 61.4509C55.6134 61.4204 55.2251 61.217 54.8982 61.1153C54.653 61.2272 54.7143 61.4001 54.6427 61.5628H52.8342C52.1701 62.1424 52.1701 62.061 51.1075 62.0712C50.4024 62.0712 49.7792 61.7153 49.0742 61.817C48.8902 61.8475 48.8289 61.5322 48.5531 61.6238C48.5122 61.6543 48.4304 61.7255 48.2874 61.8373C47.9604 61.695 47.5824 61.4509 47.1532 61.6644C47.1226 61.7661 47.1022 61.8678 47.0715 61.9695C47.0102 62 46.9489 62.0407 46.8876 62.0509C46.3563 62.0915 45.8352 61.9899 45.2936 62.2543C44.8236 62.478 44.3434 62.0407 43.761 62.0305C43.761 61.1153 43.6384 60.2103 44.1186 59.3357C44.3536 58.9188 44.1391 58.4002 44.2106 57.9629C44.6397 57.3731 45.2426 57.0578 45.9782 56.7426H46.9285C47.3474 57.1595 47.7663 57.5765 48.2261 58.0341C48.2261 58.1053 48.1648 58.3188 48.2261 58.39C48.7983 58.9798 49.3092 59.6916 50.1879 59.8137C50.617 59.8747 50.8724 60.1493 51.4038 60.2713C51.9964 60.2001 52.7116 60.4035 53.4064 60.6679C53.5392 60.7187 53.7334 60.7696 53.8253 60.7086C54.6325 60.1493 55.8586 60.9628 56.4819 59.8645H57.4628C58.4437 58.7256 59.7924 57.9324 60.2011 56.346C60.1602 56.2952 60.0581 56.1935 59.8946 56.0206C59.7822 56.2138 59.68 56.3867 59.6187 56.4985H57.6058C56.6556 57.007 55.8075 57.4951 55.0514 58.0341C54.1012 58.2171 53.2532 57.6171 52.3744 57.851C50.004 56.3257 50.2492 56.5392 47.6437 56.4884C46.9898 55.9189 46.6832 55.085 46.0395 54.5156C45.9782 54.4647 45.825 54.5156 45.641 54.5156C45.2017 55.024 44.6397 55.4511 44.2617 56.0918C43.8938 56.7121 43.1582 57.0172 42.8312 57.729C42.6575 58.1053 42.2794 58.4815 41.8912 58.6544C41.462 58.8578 41.2373 59.2137 40.8694 59.4679C40.9409 59.5798 41.0023 59.6916 41.0738 59.7933C41.1146 60.0272 40.8899 60.0882 40.7468 60.2916C39.8374 60.1798 38.8463 60.5357 37.9472 59.956C37.937 59.8238 37.9778 59.7018 37.8246 59.6103C37.14 59.5391 36.4861 60.0272 35.7811 59.8137C35.5869 60.5967 35.8015 61.2373 36.0774 61.8475C36.6802 63.1695 36.3737 62.9152 35.7606 63.9016C35.6278 64.4101 35.7402 64.8779 35.9956 65.3253C36.2817 65.3965 36.5269 65.5084 36.6291 65.8541C36.3839 66.0372 36.1285 66.2202 35.8117 66.4541C35.2191 66.1795 34.6163 65.6914 34.2791 64.9491C34.1973 65.0202 34.1258 65.0914 34.0441 65.1626C34.0134 65.1016 33.9317 65.0304 33.9521 64.9796C34.1156 64.3491 33.7069 63.7898 33.7171 63.1796C33.7273 62.5492 33.8499 61.8882 33.6865 61.2984C33.4821 60.5764 33.5025 59.8747 33.5025 59.1628C33.5025 58.7663 33.1449 58.451 33.2675 58.0341C32.869 57.5155 33.1143 56.9257 33.0325 56.3969C33.2062 56.224 33.3288 56.102 33.4719 55.9596V54.8512C33.2267 54.4546 32.7873 54.2613 32.3377 54.0376C32.4297 53.5699 32.4501 53.1224 32.4195 52.7258C32.3786 52.0852 32.5012 51.3937 32.2764 50.7835C32.0925 50.2751 32.0312 49.8276 32.2764 49.3497C32.4093 49.1056 32.3071 48.8514 32.3479 48.5972C32.3888 48.3226 32.256 48.0277 32.5012 47.7633C32.6443 47.6108 32.6443 47.3464 32.4603 47.1735C32.3377 47.0515 32.2764 46.8684 32.3479 46.7871C32.8077 46.2786 32.3173 45.5769 32.7464 45.0583C32.8588 44.9261 32.7771 44.6312 32.7771 44.4075C32.7771 43.5228 32.7771 42.6279 32.7771 41.733C32.9201 41.5805 33.0734 41.428 33.2164 41.2754V39.9433L32.7975 39.5263C32.8588 39.4552 32.9099 39.384 32.9712 39.3128C33.0223 39.2619 33.0734 39.1806 33.1347 39.1806C33.3595 39.1602 33.5741 39.1806 33.7784 39.1806C33.9725 38.8247 34.3404 38.4586 34.2791 38.184C34.1871 37.7773 34.3608 37.584 34.5549 37.2281C34.6163 36.6281 34.4119 35.8858 34.9841 35.2757C35.1374 35.113 35.0045 34.7062 35.0045 34.4113C34.7491 34.1672 34.4017 33.974 34.1871 33.7503C34.0134 33.5571 33.7478 33.3029 33.6456 32.9978C34.0849 32.4995 33.6967 31.7978 34.1462 31.3504L33.9215 31.1267C34.1156 30.9029 34.0747 30.547 34.4732 30.3538C34.0134 30.0793 34.2689 29.5606 33.901 29.3064C34.3097 29.0013 34.0236 28.5437 34.0849 28.3505C35.3213 26.9777 36.7313 26.0523 38.1209 24.9744H38.6931C38.9179 24.8218 39.0303 24.6083 39.1018 24.3134C39.5105 24.4456 39.7966 24.0083 40.2155 24.0897C40.3381 23.7541 40.7162 23.6727 40.9307 23.4287C41.0125 23.4999 41.084 23.571 41.1351 23.6117C41.697 23.327 42.2488 23.0422 42.8108 22.7473C42.9845 22.7168 43.0458 22.8795 43.1582 22.9609C43.7712 22.8592 44.3332 22.4728 44.9769 22.5338C45.4265 22.5745 45.7534 22.1982 46.2234 22.2796C46.6321 22.3507 47.0511 22.2491 47.4802 22.127C48.0013 21.9745 48.5633 22.2999 48.972 22.7372C49.0844 22.666 49.0742 22.5541 49.0742 22.3711C49.5442 22.2084 50.1572 22.4931 50.5251 22.2389C51.0461 21.883 51.4038 22.1677 51.8227 22.3101C51.9044 22.2389 51.9862 22.1677 52.0679 22.0965C52.3029 22.2287 52.5379 22.3711 52.7934 22.5135C53.1203 22.4016 53.5188 22.3507 53.6005 21.883C53.9071 22.0965 54.2443 22.1474 54.6019 22.0253C54.6325 21.7203 54.2749 21.9847 54.2647 21.7203C54.8369 21.4152 55.2967 21.9236 55.9097 21.9643C56.1039 21.7406 56.5841 21.9745 56.8395 21.6389C57.0337 21.5982 57.095 21.7609 57.2176 21.8423C57.2891 21.7813 57.3708 21.7101 57.4424 21.6389C57.6672 21.7914 57.4526 22.066 57.6161 22.2592C58.1167 22.1169 58.1474 21.5677 58.5152 21.2321C58.7502 21.344 58.9954 21.4762 59.2611 21.6084C59.5063 21.3745 59.2611 21.2423 59.0465 21.0084C60.3237 21.0389 61.2331 21.9643 62.3366 22.0965C62.6023 21.8931 62.3366 21.6084 62.5716 21.4355C62.7964 21.6491 63.0314 21.8728 63.2664 22.0863C63.6955 22.0355 63.9918 22.2999 64.3903 22.4829C64.421 22.4626 64.4925 22.4016 64.5947 22.3202C64.891 22.2084 65.1975 22.4829 65.2997 22.6151C65.6982 23.1643 66.4645 23.2965 66.771 23.9778C66.8732 24.2015 67.333 24.4049 67.7213 24.3032C68.0789 24.4863 68.038 24.9439 68.3854 25.1676H69.2437C69.5196 25.4727 69.7852 25.7676 70.0407 26.0421C70.2961 26.0625 70.4698 26.0726 70.6435 26.0828C70.6946 26.3879 70.8785 26.5607 71.185 26.6218C71.0624 26.7845 70.7865 26.9065 71.0624 27.1709C71.1339 27.1099 71.2157 27.0387 71.2974 26.9675C71.5529 27.1811 71.3792 27.3336 71.2157 27.4861C71.2668 27.6692 71.5835 27.781 71.3485 28.0251C71.0726 28.3098 71.1135 28.6556 71.2872 28.92C71.5426 29.3166 71.3383 29.6827 71.4507 30.1708C71.2463 29.9877 71.1646 29.9267 71.0931 29.8555C70.715 30.1606 71.3076 30.3233 71.1953 30.6182C71.1442 30.6792 71.0726 30.7606 70.9909 30.8419C71.1339 30.9945 71.2872 31.147 71.3894 31.2589C71.5222 31.686 71.2055 32.0215 71.2566 32.3165C71.2872 32.53 71.1442 32.8656 71.4098 33.0385C71.3894 33.4452 70.6639 33.2012 70.7763 33.73C71.0829 34.1367 71.3179 33.313 71.6755 33.7503C71.5018 33.8622 71.3281 33.974 71.1646 34.0757C71.3587 34.4113 71.6244 34.1876 71.8798 34.3909C72.1455 34.6248 71.5529 34.7265 71.655 34.9909C72.4009 35.6112 72.8198 36.4349 73.0753 37.3807C73.157 37.3095 73.2388 37.2485 73.3103 37.1773C73.5351 37.34 73.4022 37.5535 73.392 37.7569C73.2592 37.8078 73.1366 37.8586 73.0038 37.9095C73.4738 38.5094 73.7088 39.2314 74.0357 39.8823C73.7701 40.5432 73.7292 41.1737 74.097 41.8246C73.9744 42.1703 73.6066 42.333 73.4431 42.6381C73.2081 43.1059 73.7292 43.4414 73.627 43.9397C74.0766 44.2651 74.3218 44.7939 74.7612 45.3532C74.7612 45.3634 74.6079 45.3736 74.5364 45.5566C74.7612 45.9227 74.7918 46.4108 74.751 46.9091C74.6999 47.4887 75.0575 47.9972 74.9962 48.5972C74.9451 49.1565 74.986 49.7056 75.1495 50.2954C75.3436 50.9462 75.2721 51.6987 75.1699 52.3902C75.0882 53.0106 75.5173 53.5902 75.221 54.1902C75.6399 54.7901 75.3129 55.4715 75.4253 56.102C75.4458 56.224 75.5786 56.3358 75.691 56.5087C75.4969 56.7324 75.3947 56.8951 75.4049 57.1392C75.4253 57.9527 75.4049 58.7663 75.4151 59.5798C75.4151 59.8137 75.3947 60.0171 75.1392 60.1899C75.3027 60.3526 75.456 60.5052 75.5582 60.6069C75.4151 61.817 75.2721 63.0169 75.1392 64.1965C74.9247 64.3491 74.7918 64.2169 74.6386 64.044C74.2401 64.3288 74.1992 64.9287 73.719 65.1219C73.6577 65.0711 73.5759 64.9999 73.5044 64.9389C73.0855 65.2846 73.8825 65.4067 73.5862 65.7117C73.4738 65.8948 73.2796 65.7728 73.1059 65.8134C72.9731 66.027 72.8812 66.3016 72.544 66.3219C72.5235 66.4948 72.5031 66.6676 72.4827 66.8405C72.0842 66.9117 71.8798 67.2269 71.6142 67.471V68.1422C71.3587 68.3252 71.0726 68.2337 70.7968 68.2133C70.6742 67.9998 71.277 67.7354 70.6844 67.5625C70.3268 67.6744 70.5209 68.2845 69.9998 68.2744C70.1326 68.4167 70.1939 68.4981 70.2654 68.5693C70.1633 68.7015 69.9487 68.7421 69.9078 68.6303C69.8159 68.3455 69.6115 68.2133 69.3663 68.0811C69.4072 67.6134 70.0202 67.5117 70.0713 66.993C69.54 66.9727 69.2437 67.3083 68.978 67.6439C68.7022 67.9896 68.7737 68.5184 68.4161 68.8947C68.3241 68.8235 68.2526 68.7625 68.1504 68.6913C68.0891 68.7421 68.0074 68.8031 67.9256 68.8743C67.8541 68.8133 67.7724 68.7421 67.7008 68.6811C67.5373 69.3116 66.9243 69.2506 66.4952 69.4235C66.4747 69.5455 66.4441 69.6472 66.4338 69.7184C66.2193 69.8709 65.9536 69.6675 65.8004 69.9014C65.9536 70.1658 66.3112 69.8404 66.4952 70.2268C66.0354 70.1861 65.6164 70.359 65.1975 70.0438C65.0647 70.3488 65.1771 70.837 64.6458 70.9488C64.7684 71.081 64.8399 71.1624 64.9012 71.2437C64.7888 71.3759 64.656 71.3759 64.4925 71.2946C64.4823 71.1319 64.4619 70.959 64.4414 70.7759C64.2473 70.6234 64.0429 70.6641 63.8386 70.7454C63.8079 71.0607 64.1758 70.7658 64.2064 70.9793C64.2064 71.2641 63.8692 71.0098 63.8079 71.2336C63.8692 71.3047 63.9408 71.3759 64.0327 71.4878C63.5934 71.7624 63.5014 71.2641 63.2153 71.1319C63.1336 71.2336 63.0518 71.3556 62.9292 71.5081C62.9394 71.7115 63.2664 71.4674 63.3277 71.6708C63.1744 71.7725 63.1233 72.22 62.7862 71.8335C62.7657 71.8132 62.5001 72.0979 62.1527 71.9962C62.2957 72.1793 62.357 72.2505 62.4183 72.3318C62.2446 72.8606 61.7644 72.6166 61.417 72.7081C61.4068 72.9521 61.0185 73.1148 61.2229 73.3589C61.0696 73.5521 60.8959 73.7555 60.7324 73.9589L60.569 73.7962C60.0274 74.1724 60.3237 74.9249 59.8946 75.3317C59.6902 75.2605 59.8639 74.9758 59.6391 74.9046C59.4552 74.9758 59.6596 75.3927 59.2815 75.3317C58.9954 75.1792 59.0772 74.63 58.5663 74.6707C58.3211 74.8843 58.505 75.1995 58.4233 75.4639C58.1269 75.4537 57.9839 75.83 57.6774 75.7791C57.5037 75.6978 57.5854 75.5147 57.473 75.352C57.3708 75.5249 57.2687 75.6978 57.2482 75.7385C56.86 75.7385 56.7987 75.4639 56.5636 75.5656C56.4104 75.7791 56.3695 76.074 56.0936 76.2266C56.0426 76.1757 55.9915 76.1249 55.9404 76.074C55.5215 76.074 55.6236 76.5317 55.3682 76.674C54.9901 76.7147 54.9493 76.1452 54.5508 76.2266C54.2953 76.3689 54.5099 76.6334 54.3771 76.8266C53.8458 76.8266 53.764 76.3079 53.4473 76.0435C53.2225 76.2571 52.6503 76.0842 52.8444 76.7045C52.5788 76.6028 52.6605 76.4198 52.5788 76.2876C52.3949 76.1757 52.3949 76.4503 52.1394 76.4401C51.8942 76.3384 51.5468 76.1147 51.1177 76.2774C50.9542 76.5215 51.2505 76.9994 50.6783 77.0503C50.2083 76.6842 49.7689 76.1757 49.4624 75.6266C48.972 75.6266 48.9311 76.2164 48.5224 76.2571C48.3078 76.0944 48.4202 75.891 48.3794 75.6978C48.3385 75.6673 48.2772 75.5656 48.2465 75.5758C47.7867 75.6876 47.4598 75.3622 47.3678 75.0673C47.1941 74.5283 46.7445 74.4572 46.3665 74.2334C46.1417 74.2334 46.0089 74.7012 45.7228 74.3555C45.7943 74.2741 45.8658 74.2029 45.9271 74.1216C45.7841 73.8979 45.5593 73.786 45.3141 73.7352C45.171 73.5521 45.3856 73.2775 45.0893 73.0843C44.9769 73.247 44.8543 73.4199 44.6091 73.7555V72.2505H44.231C44.1799 72.403 44.1288 72.525 44.088 72.6471C43.9245 72.6979 43.7917 72.7081 43.7099 72.525C43.7917 71.8335 44.3945 72.0471 44.8339 71.9962C44.5784 71.4675 44.0369 71.5081 43.7201 71.2234C43.6486 71.0098 43.8223 70.9081 43.9245 70.7759C43.6588 70.5014 43.5362 70.7759 43.3727 70.8878C43.1275 70.6234 42.8108 70.4302 42.7495 70.0438C42.2897 69.8404 42.0751 70.1963 41.8197 70.4404L41.8094 70.5217Z" fill="black"/>
<path d="M45.2319 43.2891C45.5078 43.5841 45.6202 43.7366 45.845 43.6349C45.8654 43.6146 45.9165 43.5739 45.9165 43.5637C45.61 43.0756 45.8552 42.4349 45.4363 41.9062C45.0071 41.896 44.5576 41.7943 44.1489 42.1095C43.9036 42.079 43.8117 41.8451 43.5767 41.6621C43.0556 41.6621 42.4732 41.6621 41.8806 41.6621C41.3901 41.6621 40.9099 41.9367 40.4501 41.5706C40.3173 42.0587 40.8281 41.7231 40.7566 42.0689H39.6123C39.4386 42.2417 39.3057 42.3739 39.1218 42.557C38.6927 42.4858 38.2227 42.6485 37.7118 42.3536C37.3031 42.1095 36.8535 42.6078 36.3222 42.5875C36.4141 43.0756 36.2404 43.4824 36.0157 43.8891C35.9237 43.7976 35.842 43.7162 35.75 43.6247C35.8011 43.1061 36.0361 42.6078 36.1485 42.0892C36.3017 41.3875 36.8433 40.8689 37.5074 40.5333C38.2124 40.1774 38.897 39.8113 39.5918 39.4554C39.6736 39.5368 39.7553 39.6181 39.8983 39.7605C39.694 39.9333 39.3159 39.9232 39.2546 40.2791H40.7158C40.8895 39.9435 41.3186 39.8825 41.6353 39.6486C41.9521 39.7096 42.2177 40.1266 42.606 39.7503C42.8512 39.5164 43.1373 39.6181 43.3621 39.8723C43.5154 39.6384 43.546 39.3232 43.8628 39.2012C44.1182 39.3435 44.4554 39.374 44.6802 39.6384H46.0391C46.1413 39.7605 46.2537 39.9028 46.3763 40.0554H47.2039C48.5118 40.6452 49.4007 41.5401 50.3305 42.3333C50.4838 42.9637 50.3305 43.4824 49.9729 43.9501C49.8605 44.723 49.7583 45.4857 49.6357 46.2585C49.6255 46.35 49.4824 46.4212 49.3905 46.5127C49.2066 46.3602 49.0329 46.1975 48.8592 46.0551C48.614 46.3297 48.4096 46.5839 48.2768 46.7263H46.4376C46.3252 46.6144 46.2333 46.5127 46.1311 46.4111C46.3048 46.1975 46.5704 46.3907 46.6828 46.3094C46.785 46.1873 46.7646 46.0755 46.6828 46.0958C46.1106 46.1873 45.6713 45.8416 45.2115 45.6382C44.8334 45.7196 45.0787 46.0145 45.0174 46.1467C44.7517 46.5433 44.3839 46.767 43.8934 46.9704C43.3315 46.9704 42.6571 46.9704 41.993 46.9704C41.9112 46.5941 41.6251 46.3602 41.3492 46.1365C41.2573 46.0551 41.0734 46.0856 40.8792 46.0653C40.5318 46.9195 39.8677 47.2653 38.9583 47.2042C38.5496 47.1737 38.1409 47.2246 37.7322 47.1941C37.5176 47.1839 37.4257 47.3364 37.2724 47.4076C37.3337 46.9805 36.7615 47.0517 36.7002 46.6449C36.6594 46.4111 36.4346 46.0755 36.1076 45.9433C36.4039 45.5467 35.8624 45.3941 35.9544 45.0179C36.1178 44.8857 36.0667 44.4688 36.4959 44.2857C37.1192 44.662 37.9468 44.3976 38.8153 44.7128C39.2853 44.5399 39.8983 44.3162 40.5012 44.0823C41.0938 43.8586 41.7273 43.8179 42.3301 43.6756C42.9943 43.5129 43.7299 43.6349 44.4452 43.6451C44.7415 43.6451 45.0378 43.6959 45.2013 43.2688L45.2319 43.2891Z" fill="black"/>
<path d="M69.5708 44.428V45.3025C69.5708 45.3025 69.4891 45.4144 69.4277 45.4246C68.6103 45.6076 67.7725 45.9229 66.9857 45.1805H65.8312C65.8005 44.8348 66.1479 45.0992 66.1888 44.906C66.0253 44.4687 65.5655 44.3772 65.2079 44.1026C64.9729 44.306 65.1772 44.6619 64.932 44.9263C64.7379 45.1297 64.5335 45.3941 64.3598 45.5975C63.9716 45.3636 63.6446 45.7093 63.2768 45.6483C62.9191 45.5873 62.5411 45.6381 62.163 45.6381C61.6317 45.3432 61.4785 44.7839 61.223 44.306C60.8961 44.5805 60.7837 44.9466 60.6202 45.3025C60.8143 45.3941 60.9574 45.4653 61.1208 45.5364C60.1297 45.9127 59.0671 45.7703 58.1373 46.1059C57.841 45.9229 58.1475 45.5568 57.8001 45.3941C57.5549 45.5161 57.279 45.6585 56.9418 45.8313C56.2573 45.211 56.7784 44.5094 56.901 43.7568C57.1258 43.5636 57.4016 43.3297 57.7184 43.0653C57.8206 43.1264 58.0964 43.3196 58.2701 43.1772C58.5971 42.9128 58.9547 42.9433 59.3021 42.984C59.7619 43.045 60.1093 42.7196 60.5487 42.7298C60.9267 42.7298 61.3354 42.8925 61.693 42.5366C61.8054 42.4247 62.1222 42.5162 62.347 42.5162C63.3891 42.5162 64.4211 42.5162 65.4633 42.5162C66.0662 42.5162 66.6894 42.4145 67.2003 42.8925C67.2616 42.9535 67.4047 42.9535 67.5068 42.9535C68.0586 42.9433 68.4469 43.2382 68.7943 43.6043C69.0497 43.8687 69.3154 44.1229 69.5912 44.3975L69.5708 44.428Z" fill="black"/>
<path d="M65.0447 38.3571C65.3614 38.2758 65.4636 38.0622 65.6884 37.8893C66.3321 37.9402 67.0882 37.7165 67.6706 38.3266C68.3245 38.0724 68.7026 38.713 69.2441 38.8554C69.7448 38.9774 69.9798 39.6689 70.2455 40.1672C70.3783 40.4113 70.5111 40.6553 70.6848 40.9401C70.3476 41.0113 70.0718 41.0723 69.7141 40.8282C69.2646 40.5333 68.7128 40.3909 68.2019 40.1774C68.1713 40.1672 68.1406 40.1062 68.1202 40.1062C67.2823 40.1977 66.4752 39.9333 65.6475 39.8927C64.8301 39.852 64.0127 39.8927 63.2055 39.913C63.1238 39.913 63.042 40.0452 62.9603 40.1164C62.6538 40.0859 62.429 39.6689 61.9998 40.0045C61.9488 40.0757 62.1429 40.0757 62.1838 40.2486C61.9488 40.3503 61.6627 40.4621 61.4788 40.757H59.2002C59.1083 41.1638 58.6485 41.2553 58.5667 41.6519C57.8209 41.6519 57.0443 41.8044 56.4619 41.1435C56.6969 40.4723 57.1567 40.0554 57.8617 39.8825C58.0661 39.7401 58.0048 39.4045 58.342 39.252H59.0265C59.2309 38.6927 59.8337 38.8452 60.1811 38.5605C60.9168 38.7232 61.5911 38.1944 62.3166 38.347C62.7253 38.4385 62.9603 38.0419 63.3486 38.1029C63.6755 38.1537 64.0127 38.1232 64.3499 38.1029C64.6462 38.1029 64.9425 38.052 65.0651 38.347L65.0447 38.3571Z" fill="black"/>
<path d="M38.7139 48.821C38.8876 48.4041 39.2963 48.4753 39.3882 48.5668C39.7458 48.9024 40.2567 48.6075 40.5939 48.9125C40.7574 49.0651 40.9413 48.9634 41.115 48.9939C41.442 49.0447 41.6974 48.5566 42.0142 48.8007C42.2594 48.9939 42.5761 48.7295 42.76 48.9939C43.1381 48.6176 43.6898 49.3193 44.0372 48.7803C44.1088 48.8515 44.1905 48.9125 44.262 48.9837C44.6196 48.5769 45.1816 48.638 45.6312 48.3837C45.6618 48.4041 45.7334 48.4753 45.8151 48.5464C45.9684 48.4651 45.8866 48.282 45.9479 48.2007C46.9084 47.8854 47.8484 47.5804 48.7884 47.2651C48.6999 47.5499 48.5262 47.8312 48.2673 48.1092C47.4193 47.9566 46.6427 48.3431 45.9888 48.8617C45.5494 49.2074 45.0794 49.36 44.589 49.543C43.23 50.0515 41.8507 49.9294 40.4713 49.6549C40.3385 49.6244 40.2976 49.4312 40.1137 49.4312C39.8276 49.4312 39.7663 49.0651 39.5211 48.9939C39.286 48.9329 39 49.0956 38.7241 48.821H38.7139Z" fill="black"/>
<path d="M66.4644 47.3563C66.444 47.6411 66.444 47.7122 66.4338 47.8648C65.8616 47.7733 65.3712 48.18 64.799 48.0987C64.5844 48.18 64.7581 48.4648 64.472 48.5563C64.094 48.2207 63.5729 48.2919 63.0722 48.3326C61.9483 48.4342 61.0083 47.997 60.0171 47.4275C59.588 47.4478 59.0873 47.458 58.6582 47.1224C58.9239 46.4818 59.6902 47.0106 59.9558 46.5225C60.2317 46.5835 60.1908 46.7564 60.2011 46.8885C60.3952 47.1529 60.855 46.7563 60.9265 47.2445C61.0491 47.1326 61.1309 47.0614 61.2126 46.9801C61.6315 46.9801 61.7133 47.3055 61.8359 47.6614C63.3379 47.5902 64.8603 47.8139 66.444 47.3462L66.4644 47.3563Z" fill="black"/>
</g>
<defs>
<clipPath id="clip0_1450_7859">
<rect width="108" height="86" fill="white" transform="translate(0.5 0.141602)"/>
</clipPath>
</defs>
</svg>
