<svg width="121" height="110" viewBox="0 0 121 110" fill="none" xmlns="http://www.w3.org/2000/svg">
<path fill-rule="evenodd" clip-rule="evenodd" d="M91.5797 83.1413H99.2347V86.9544C100.337 84.7614 103.165 82.791 107.413 82.791C115.557 82.791 117.49 87.1564 117.49 95.166V110H109.246V96.9901C109.246 92.4288 108.143 89.8565 105.336 89.8565C101.442 89.8565 99.8242 92.6287 99.8242 96.988V110H91.5797V83.1413ZM77.4424 109.65H85.6869V82.791H77.4424V109.65ZM86.868 74.0332C86.8683 74.7243 86.7312 75.4085 86.4648 76.0461C86.1983 76.6837 85.8078 77.262 85.3159 77.7474C84.3192 78.738 82.97 79.2925 81.5647 79.2891C80.1619 79.2882 78.8158 78.7351 77.8175 77.7494C77.3274 77.2624 76.9382 76.6835 76.6723 76.0458C76.4063 75.4081 76.2688 74.7242 76.2676 74.0332C76.2676 72.6378 76.8241 71.3022 77.8196 70.317C78.817 69.3301 80.1636 68.7767 81.5667 68.7773C82.9724 68.7773 84.3204 69.3318 85.3159 70.317C86.3094 71.3022 86.868 72.6378 86.868 74.0332Z" fill="#009640"/>
<path fill-rule="evenodd" clip-rule="evenodd" d="M12.1138 68.901C14.3117 68.7998 15.0125 68.7773 20.6113 68.7773C26.21 68.7773 26.9108 68.8017 29.1069 68.901C31.3029 69.0003 32.8019 69.3507 34.1135 69.8585C35.487 70.3775 36.733 71.1889 37.7636 72.2382C38.8129 73.2669 39.6224 74.511 40.1395 75.8864C40.6492 77.198 40.9977 78.697 41.0989 80.8893C41.2001 83.0909 41.2226 83.7917 41.2226 89.3886C41.2226 94.9874 41.1982 95.6882 41.0989 97.8861C40.9996 100.078 40.6492 101.577 40.1395 102.889C39.6224 104.265 38.8116 105.511 37.7636 106.541C36.733 107.59 35.487 108.4 34.1135 108.917C32.8019 109.427 31.3029 109.775 29.1106 109.876C26.9108 109.977 26.21 110 20.6113 110C15.0125 110 14.3117 109.976 12.1138 109.876C9.92152 109.777 8.42252 109.427 7.11089 108.917C5.73541 108.4 4.48917 107.589 3.45895 106.541C2.41036 105.512 1.5989 104.266 1.08116 102.891C0.573368 101.579 0.22485 100.08 0.123668 97.888C0.022485 95.6863 0 94.9855 0 89.3886C0 83.7898 0.0243588 83.0891 0.123668 80.893C0.222977 78.697 0.573368 77.198 1.08116 75.8864C1.59967 74.5112 2.41174 73.2656 3.46082 72.2363C4.48959 71.1879 5.73457 70.3765 7.10902 69.8585C8.42064 69.3507 9.91965 69.0022 12.1119 68.901H12.1138ZM28.9401 72.611C26.7666 72.5117 26.1145 72.4911 20.6113 72.4911C15.1081 72.4911 14.456 72.5117 12.2824 72.611C10.2719 72.7029 9.18139 73.0383 8.45437 73.3212C7.49314 73.6959 6.80547 74.14 6.08407 74.8614C5.40024 75.5267 4.87397 76.3366 4.54385 77.2317C4.26091 77.9587 3.92551 79.0493 3.8337 81.0598C3.73439 83.2333 3.71378 83.8854 3.71378 89.3886C3.71378 94.8918 3.73439 95.5439 3.8337 97.7175C3.92551 99.728 4.26091 100.819 4.54385 101.546C4.87363 102.439 5.40016 103.251 6.08407 103.916C6.74926 104.6 7.56059 105.126 8.45437 105.456C9.18139 105.739 10.2719 106.074 12.2824 106.166C14.456 106.266 15.1062 106.286 20.6113 106.286C26.1164 106.286 26.7666 106.266 28.9401 106.166C30.9506 106.074 32.0412 105.739 32.7682 105.456C33.7294 105.081 34.4171 104.637 35.1385 103.916C35.8224 103.251 36.3489 102.439 36.6787 101.546C36.9616 100.819 37.297 99.728 37.3889 97.7175C37.4882 95.5439 37.5088 94.8918 37.5088 89.3886C37.5088 83.8854 37.4882 83.2333 37.3889 81.0598C37.297 79.0493 36.9616 77.9587 36.6787 77.2317C36.304 76.2705 35.8599 75.5828 35.1385 74.8614C34.4732 74.1776 33.6633 73.6514 32.7682 73.3212C32.0412 73.0383 30.9506 72.7029 28.9401 72.611ZM17.9787 95.7425C19.4489 96.3545 21.086 96.4371 22.6104 95.9762C24.1348 95.5153 25.4519 94.5394 26.3367 93.2153C27.2216 91.8911 27.6192 90.3009 27.4618 88.7161C27.3044 87.1314 26.6017 85.6504 25.4737 84.5262C24.7546 83.8076 23.8851 83.2574 22.9279 82.9151C21.9706 82.5728 20.9494 82.447 19.9377 82.5468C18.926 82.6466 17.949 82.9695 17.077 83.4922C16.2051 84.0149 15.4599 84.7244 14.895 85.5696C14.3302 86.4149 13.9598 87.3749 13.8105 88.3805C13.6612 89.3861 13.7368 90.4122 14.0317 91.3851C14.3266 92.358 14.8335 93.2534 15.516 94.0069C16.1985 94.7604 17.0396 95.3531 17.9787 95.7425ZM13.12 81.8974C14.1038 80.9136 15.2717 80.1332 16.557 79.6008C17.8424 79.0684 19.22 78.7944 20.6113 78.7944C22.0025 78.7944 23.3802 79.0684 24.6655 79.6008C25.9509 80.1332 27.1188 80.9136 28.1025 81.8974C29.0863 82.8811 29.8667 84.049 30.3991 85.3344C30.9315 86.6197 31.2055 87.9974 31.2055 89.3886C31.2055 90.7799 30.9315 92.1575 30.3991 93.4429C29.8667 94.7282 29.0863 95.8961 28.1025 96.8799C26.1157 98.8667 23.421 99.9829 20.6113 99.9829C17.8015 99.9829 15.1068 98.8667 13.12 96.8799C11.1332 94.8931 10.017 92.1984 10.017 89.3886C10.017 86.5789 11.1332 83.8842 13.12 81.8974ZM33.5552 80.3721C33.7989 80.1422 33.9941 79.8656 34.1291 79.5589C34.2641 79.2521 34.3362 78.9214 34.341 78.5863C34.3459 78.2512 34.2835 77.9185 34.1575 77.608C34.0315 77.2974 33.8445 77.0153 33.6076 76.7783C33.3706 76.5414 33.0885 76.3543 32.7779 76.2284C32.4674 76.1024 32.1347 76.04 31.7996 76.0448C31.4645 76.0497 31.1338 76.1218 30.827 76.2568C30.5203 76.3918 30.2437 76.5869 30.0138 76.8307C29.5665 77.3048 29.3217 77.9346 29.3312 78.5863C29.3407 79.238 29.6038 79.8604 30.0647 80.3212C30.5255 80.7821 31.1479 81.0452 31.7996 81.0547C32.4513 81.0642 33.081 80.8194 33.5552 80.3721Z" fill="#009640"/>
<path d="M120.998 11.4572C119.277 12.2198 117.429 12.7351 115.485 12.968C117.49 11.768 118.991 9.87935 119.706 7.65443C117.822 8.7736 115.76 9.56138 113.609 9.98351C112.163 8.43944 110.248 7.41601 108.16 7.07211C106.073 6.72821 103.93 7.08307 102.065 8.08161C100.2 9.08014 98.7172 10.6665 97.8461 12.5943C96.975 14.5222 96.7648 16.6837 97.2481 18.7433C93.4302 18.5516 89.6953 17.5593 86.2858 15.8307C82.8763 14.1022 79.8683 11.676 77.4571 8.70973C76.6327 10.1319 76.1586 11.7808 76.1586 13.5369C76.1577 15.1178 76.547 16.6744 77.292 18.0688C78.037 19.4631 79.1146 20.652 80.4293 21.5299C78.9046 21.4814 77.4136 21.0695 76.0803 20.3283V20.452C76.0801 22.6692 76.8471 24.8182 78.251 26.5344C79.655 28.2505 81.6094 29.428 83.7827 29.8672C82.3684 30.25 80.8855 30.3064 79.4461 30.0321C80.0593 31.9399 81.2537 33.6082 82.8622 34.8035C84.4706 35.9987 86.4126 36.6611 88.4161 36.6978C85.0149 39.3678 80.8145 40.8161 76.4905 40.8097C75.7245 40.8099 74.9592 40.7652 74.1985 40.6758C78.5876 43.4978 83.6969 44.9955 88.9149 44.9897C106.579 44.9897 116.235 30.3598 116.235 17.6715C116.235 17.2593 116.225 16.8429 116.206 16.4307C118.085 15.0724 119.706 13.3903 120.994 11.4634L120.998 11.4572Z" fill="#009640"/>
<path d="M24.7366 17.2498V12.3031C24.7366 10.1595 25.2312 9.00525 28.6939 9.00525H32.9811V0.760742H26.3855C18.141 0.760742 14.8432 6.20212 14.8432 12.3031V17.2498H8.24756V25.4943H14.8432V50.2278H24.7366V25.4943H31.9917L32.9811 17.2498H24.7366Z" fill="#009640"/>
</svg>
