<svg width="109" height="87" viewBox="0 0 109 87" fill="none" xmlns="http://www.w3.org/2000/svg">
<path d="M55.6832 77.6878L53.0203 61.2966L51.3808 77.2774L45.8486 74.2033L51.9766 53.0849L57.1168 61.5012L59.5749 72.9752L55.6832 77.6878ZM36.4719 77.2028L35.4944 73.7212L32.0224 72.5934L35.5022 71.6152L36.6297 68.1422L37.6084 71.6228L41.0813 72.7516L37.6008 73.7291L36.4719 77.2028ZM44.0894 70.2683L40.4682 69.9881L32.4482 56.8143L31.9297 46.4506L41.7376 50.2431L48.1251 58.7388L46.0753 66.6078L38.1872 56.2271L44.0897 70.2683H44.0894ZM62.2973 66.6738L60.1698 66.4079L59.1063 60.9549L57.3213 57.6082L68.7956 46.1341L72.6893 47.3622L71.0499 56.5827L62.2974 66.6737L62.2973 66.6738ZM64.5908 61.4371L67.9996 57.3721L69.2471 52.2567L66.0992 56.3217L64.5908 61.4371ZM48.9762 56.6364L44.1603 50.1839L46.9266 36.5558L56.5573 24.6743L64.4454 35.3277L63.6267 48.5446L56.2502 56.1246L51.5377 48.9529L48.9761 56.6364H48.9762ZM54.8912 50.7302L58.2887 38.9052L61.3809 36.0479L57.8772 36.5292L56.4857 31.1192L55.6659 36.5292L49.9978 37.2187L55.6363 39.2399L54.8913 50.7299L54.8912 50.7302ZM42.7352 48.2643L39.2507 42.7309L40.4807 31.0543L44.3736 38.8401L42.7351 48.2644L42.7352 48.2643ZM71.7674 45.4568L70.5337 41.0599L66.1491 39.6358L70.5432 38.3999L71.9673 34.0154L73.2031 38.4104L77.5876 39.8357L73.1934 41.0694L71.7672 45.4569L71.7674 45.4568ZM45.0299 33.2139L43.4869 27.7152L38.0024 25.9339L43.4994 24.3883L45.2803 18.9038L46.8262 24.4008L52.3096 26.1837L46.8136 27.7274L45.0299 33.2139Z" fill="black"/>
</svg>
