<svg width="112" height="112" viewBox="0 0 112 112" fill="none" xmlns="http://www.w3.org/2000/svg">
<path d="M50.7287 16.543H15.9397C13.3035 16.543 10.7753 17.5902 8.91127 19.4542C7.04722 21.3183 6 23.8465 6 26.4827V96.0606C6 98.6968 7.04722 101.225 8.91127 103.089C10.7753 104.953 13.3035 106 15.9397 106H85.5177C88.1539 106 90.6821 104.953 92.5461 103.089C94.4102 101.225 95.4574 98.6968 95.4574 96.0606V61.2717" stroke="#009640" stroke-width="10.2379" stroke-linecap="round" stroke-linejoin="round"/>
<path d="M87.9999 9.08787C89.977 7.11074 92.6586 6 95.4547 6C98.2508 6 100.932 7.11074 102.909 9.08787C104.887 11.065 105.997 13.7466 105.997 16.5427C105.997 19.3387 104.887 22.0203 102.909 23.9974L55.6958 71.2111L35.8164 76.1809L40.7863 56.3015L87.9999 9.08787Z" stroke="#009640" stroke-width="10.2379" stroke-linecap="round" stroke-linejoin="round"/>
</svg>
