<svg width="109" height="87" viewBox="0 0 109 87" fill="none" xmlns="http://www.w3.org/2000/svg">
<path d="M78.4974 29.6292C75.5374 28.6959 72.2841 28.2959 69.1641 28.2959C63.9641 28.2959 58.3641 29.3626 54.4974 32.2959C50.6307 29.3626 45.0307 28.2959 39.8307 28.2959C34.6307 28.2959 29.0307 29.3626 25.1641 32.2959V71.3626C25.1641 72.0292 25.8307 72.6959 26.4974 72.6959C26.7641 72.6959 26.8974 72.5626 27.1641 72.5626C30.7641 70.8292 35.9641 69.6292 39.8307 69.6292C45.0307 69.6292 50.6307 70.6959 54.4974 73.6292C58.0974 71.3626 64.6307 69.6292 69.1641 69.6292C73.5641 69.6292 78.0974 70.4292 81.8307 72.4292C82.0974 72.5626 82.2307 72.5626 82.4974 72.5626C83.1641 72.5626 83.8307 71.8959 83.8307 71.2292V32.2959C82.2307 31.0959 80.4974 30.2959 78.4974 29.6292ZM30.4974 65.6292V34.9626C33.4307 34.0292 36.6307 33.6292 39.8307 33.6292C43.4041 33.6292 48.1774 34.7226 51.8307 36.2692V66.9359C48.1774 65.3892 43.4041 64.2959 39.8307 64.2959C36.6307 64.2959 33.4307 64.6959 30.4974 65.6292ZM78.4974 65.6292C75.5641 64.6959 72.3641 64.2959 69.1641 64.2959C65.5907 64.2959 60.8174 65.3892 57.1641 66.9359V36.2692C60.8174 34.6959 65.5907 33.6292 69.1641 33.6292C72.3641 33.6292 75.5641 34.0292 78.4974 34.9626V65.6292Z" fill="black"/>
<path opacity="0.3" d="M51.8304 36.2694C48.1771 34.7227 43.4037 33.6294 39.8304 33.6294C36.6304 33.6294 33.4304 34.0294 30.4971 34.9627V65.6294C33.4304 64.6961 36.6304 64.2961 39.8304 64.2961C43.4037 64.2961 48.1771 65.3894 51.8304 66.9361V36.2694Z" fill="black"/>
<path d="M69.1634 44.2959C71.5101 44.2959 73.7767 44.5359 75.8301 44.9892V40.9359C73.7234 40.5359 71.4567 40.2959 69.1634 40.2959C65.7501 40.2959 62.6034 40.7226 59.8301 41.5492V45.7359C62.4701 44.8026 65.6434 44.2959 69.1634 44.2959ZM69.1634 51.3892C71.5101 51.3892 73.7767 51.6292 75.8301 52.0826V48.0292C73.7234 47.6292 71.4567 47.3892 69.1634 47.3892C65.7501 47.3892 62.6034 47.8159 59.8301 48.6426V52.8292C62.4701 51.9226 65.6434 51.3892 69.1634 51.3892ZM69.1634 58.5092C71.5101 58.5092 73.7767 58.7492 75.8301 59.2026V55.1492C73.7234 54.7492 71.4567 54.5092 69.1634 54.5092C65.7501 54.5092 62.6034 54.9359 59.8301 55.7626V59.9492C62.4701 59.0159 65.6434 58.5092 69.1634 58.5092Z" fill="black"/>
</svg>
