<svg width="34" height="34" viewBox="0 0 34 34" fill="none" xmlns="http://www.w3.org/2000/svg">
<path d="M17 0.333252C7.79998 0.333252 0.333313 7.79992 0.333313 16.9999C0.333313 26.1999 7.79998 33.6666 17 33.6666C26.2 33.6666 33.6666 26.1999 33.6666 16.9999C33.6666 7.79992 26.2 0.333252 17 0.333252ZM17 6.99992C20.2166 6.99992 22.8333 9.61658 22.8333 12.8333C22.8333 16.0499 20.2166 18.6666 17 18.6666C13.7833 18.6666 11.1666 16.0499 11.1666 12.8333C11.1666 9.61658 13.7833 6.99992 17 6.99992ZM17 30.3333C13.6166 30.3333 9.61665 28.9666 6.76665 25.5333C9.68599 23.2428 13.2893 21.9979 17 21.9979C20.7106 21.9979 24.314 23.2428 27.2333 25.5333C24.3833 28.9666 20.3833 30.3333 17 30.3333Z" fill="white"/>
</svg>
