<svg width="32" height="25" viewBox="0 0 32 25" fill="none" xmlns="http://www.w3.org/2000/svg">
<path d="M4.66669 8.75122C4.2653 8.75122 3.92908 8.61522 3.65802 8.34322C3.38602 8.07216 3.25002 7.73594 3.25002 7.33455C3.25002 6.93317 3.38602 6.59647 3.65802 6.32447C3.92908 6.05342 4.2653 5.91789 4.66669 5.91789H8.91669C9.69585 5.91789 10.3626 6.19508 10.917 6.74947C11.4724 7.3048 11.75 7.97205 11.75 8.75122H4.66669ZM7.50002 21.5012C8.68058 21.5012 9.68405 21.088 10.5104 20.2616C11.3368 19.4352 11.75 18.4318 11.75 17.2512C11.75 16.0707 11.3368 15.0672 10.5104 14.2408C9.68405 13.4144 8.68058 13.0012 7.50002 13.0012C6.31946 13.0012 5.31599 13.4144 4.4896 14.2408C3.66321 15.0672 3.25002 16.0707 3.25002 17.2512C3.25002 18.4318 3.66321 19.4352 4.4896 20.2616C5.31599 21.088 6.31946 21.5012 7.50002 21.5012ZM26.625 21.5012C27.2153 21.5012 27.7168 21.2944 28.1295 20.8807C28.5432 20.468 28.75 19.9665 28.75 19.3762C28.75 18.7859 28.5432 18.2844 28.1295 17.8717C27.7168 17.4581 27.2153 17.2512 26.625 17.2512C26.0347 17.2512 25.5332 17.4581 25.1205 17.8717C24.7069 18.2844 24.5 18.7859 24.5 19.3762C24.5 19.9665 24.7069 20.468 25.1205 20.8807C25.5332 21.2944 26.0347 21.5012 26.625 21.5012ZM7.50002 19.3762C6.90974 19.3762 6.40824 19.1694 5.99552 18.7557C5.58185 18.343 5.37502 17.8415 5.37502 17.2512C5.37502 16.6609 5.58185 16.1594 5.99552 15.7467C6.40824 15.3331 6.90974 15.1262 7.50002 15.1262C8.0903 15.1262 8.5918 15.3331 9.00452 15.7467C9.41819 16.1594 9.62502 16.6609 9.62502 17.2512C9.62502 17.8415 9.41819 18.343 9.00452 18.7557C8.5918 19.1694 8.0903 19.3762 7.50002 19.3762ZM27.3334 14.4533C27.9472 14.5714 28.4549 14.7305 28.8563 14.9307C29.2577 15.1319 29.6945 15.4568 30.1667 15.9054V7.33455C30.1667 6.55539 29.8895 5.88861 29.3351 5.33422C28.7798 4.77889 28.1125 4.50122 27.3334 4.50122H18.4084L16.9209 2.94289L18.4084 1.45539C18.55 1.31372 18.6209 1.14844 18.6209 0.959554C18.6209 0.770665 18.55 0.605388 18.4084 0.463721C18.2667 0.322054 18.1014 0.251221 17.9125 0.251221C17.7236 0.251221 17.5584 0.322054 17.4167 0.463721L13.4146 4.4658C13.2729 4.60747 13.2021 4.77889 13.2021 4.98005C13.2021 5.18028 13.2847 5.35122 13.45 5.49289C13.5917 5.63455 13.757 5.70539 13.9459 5.70539C14.1347 5.70539 14.3 5.63455 14.4417 5.49289L15.9292 4.00539L17.4167 5.49289V8.75122C17.4167 9.53039 17.1395 10.1972 16.5851 10.7516C16.0298 11.3069 15.3625 11.5846 14.5834 11.5846H11.7146C12.2577 11.9859 12.6945 12.3991 13.025 12.8241C13.3556 13.2491 13.6861 13.7804 14.0167 14.4179H14.5834C16.1417 14.4179 17.4757 13.863 18.5854 12.7533C19.6952 11.6436 20.25 10.3096 20.25 8.75122V7.33455H27.3334V14.4533ZM21.7021 18.6679C21.8438 18.0304 22.0152 17.5166 22.2164 17.1266C22.4166 16.7374 22.7292 16.3068 23.1542 15.8346H14.4417C14.5361 16.3776 14.5834 16.8498 14.5834 17.2512C14.5834 17.6526 14.5361 18.1248 14.4417 18.6679H21.7021ZM26.625 24.3346C25.2556 24.3346 24.0868 23.8505 23.1188 22.8825C22.1507 21.9144 21.6667 20.7457 21.6667 19.3762C21.6667 18.0068 22.1507 16.838 23.1188 15.87C24.0868 14.9019 25.2556 14.4179 26.625 14.4179C27.9945 14.4179 29.1632 14.9019 30.1313 15.87C31.0993 16.838 31.5834 18.0068 31.5834 19.3762C31.5834 20.7457 31.0993 21.9144 30.1313 22.8825C29.1632 23.8505 27.9945 24.3346 26.625 24.3346ZM7.50002 24.3346C5.5403 24.3346 3.87005 23.6442 2.48927 22.2634C1.10755 20.8817 0.416687 19.2109 0.416687 17.2512C0.416687 15.2915 1.10755 13.6208 2.48927 12.2391C3.87005 10.8583 5.5403 10.1679 7.50002 10.1679C9.45974 10.1679 11.1305 10.8583 12.5122 12.2391C13.893 13.6208 14.5834 15.2915 14.5834 17.2512C14.5834 19.2109 13.893 20.8817 12.5122 22.2634C11.1305 23.6442 9.45974 24.3346 7.50002 24.3346Z" fill="white"/>
</svg>
