<svg width="24" height="25" viewBox="0 0 24 25" fill="none" xmlns="http://www.w3.org/2000/svg">
<path d="M23.5788 13.781L18.4361 10.7382C18.304 10.66 18.1532 10.6187 17.9997 10.6189C17.8461 10.619 17.6955 10.6606 17.5635 10.7391L12.4208 13.7818C12.2926 13.8575 12.1864 13.9652 12.1125 14.0945C12.0387 14.2238 11.9999 14.3701 12 14.519V20.4331C12 20.7365 12.1603 21.0167 12.4208 21.1702L17.5635 24.2129C17.6953 24.292 17.8461 24.3338 17.9998 24.3338C18.1535 24.3338 18.3043 24.292 18.4361 24.2129L23.5788 21.1702C23.707 21.0945 23.8133 20.9868 23.8871 20.8575C23.9609 20.7282 23.9997 20.5819 23.9996 20.4331V14.519C23.9996 14.37 23.9608 14.2236 23.887 14.0942C23.8132 13.9648 23.707 13.8568 23.5788 13.781ZM22.2854 19.9445L17.9998 22.4798L13.7142 19.9445V15.0075L17.9998 12.4722L22.2854 15.0075V19.9445Z" fill="white"/>
<path d="M22.285 0.333496H1.71423C0.768832 0.333496 0 1.10233 0 2.04773V19.19C0 20.1354 0.768832 20.9043 1.71423 20.9043H9.42826V19.19H1.71423V7.19041H22.285V10.6189H23.9992V2.04773C23.9992 1.10233 23.2304 0.333496 22.285 0.333496ZM1.71423 5.47618V2.04773H22.285V5.47618H1.71423Z" fill="white"/>
</svg>
