<svg width="24" height="25" viewBox="0 0 24 25" fill="none" xmlns="http://www.w3.org/2000/svg">
<path d="M10.2858 17.2078C9.69152 17.1419 9.10698 17.0067 8.54409 16.805C8.56123 16.4004 8.57152 15.9787 8.57152 15.5398V14.9621C9.10295 15.2158 9.68067 15.3924 10.2858 15.4798V11.2541C10.2858 10.5721 10.5567 9.918 11.039 9.43576C11.5212 8.95352 12.1753 8.6826 12.8573 8.6826H17.083C16.9463 7.73268 16.5837 6.82941 16.0257 6.04861C15.4677 5.26781 14.7305 4.63225 13.8761 4.19528C13.0216 3.75831 12.0748 3.53268 11.1151 3.53733C10.1554 3.54197 9.21084 3.77676 8.36066 4.22198C8.22505 3.66129 8.00173 3.12554 7.69894 2.63454C8.81027 2.07983 10.0391 1.80167 11.281 1.82371C12.5229 1.84574 13.7411 2.16732 14.832 2.7611C15.923 3.35488 16.8544 4.2033 17.5472 5.23425C18.2399 6.26519 18.6735 7.44816 18.811 8.6826H21.4288C22.1108 8.6826 22.7648 8.95352 23.2471 9.43576C23.7293 9.918 24.0002 10.5721 24.0002 11.2541V19.8256C24.0002 20.5076 23.7293 21.1616 23.2471 21.6439C22.7648 22.1261 22.1108 22.397 21.4288 22.397H12.8573C12.1753 22.397 11.5212 22.1261 11.039 21.6439C10.5567 21.1616 10.2858 20.5076 10.2858 19.8256V17.2078ZM18.811 10.3969C18.6163 12.1362 17.8361 13.7577 16.5985 14.9953C15.3609 16.2329 13.7395 17.013 12.0001 17.2078V19.8256C12.0001 20.0529 12.0904 20.2709 12.2512 20.4317C12.4119 20.5924 12.6299 20.6827 12.8573 20.6827H21.4288C21.6561 20.6827 21.8741 20.5924 22.0349 20.4317C22.1956 20.2709 22.2859 20.0529 22.2859 19.8256V11.2541C22.2859 11.0267 22.1956 10.8087 22.0349 10.648C21.8741 10.4872 21.6561 10.3969 21.4288 10.3969H18.811ZM17.083 10.3969H12.8573C12.6299 10.3969 12.4119 10.4872 12.2512 10.648C12.0904 10.8087 12.0001 11.0267 12.0001 11.2541V15.4798C13.2824 15.2945 14.4703 14.6993 15.3864 13.7832C16.3025 12.8671 16.8977 11.6792 17.083 10.3969ZM6.50578 11.3586C6.32578 10.6969 6.03435 10.0335 5.53377 9.52432C6.34292 8.75803 6.85721 7.53744 6.85721 6.11114C6.85721 4.91627 6.6155 4.09512 6.17835 3.43854C5.98438 3.15615 5.76019 2.89575 5.50977 2.66196C5.41379 2.5693 5.31664 2.47787 5.21834 2.38768C5.11377 2.28996 5.01777 2.20082 4.89262 2.07567C4.63548 1.81853 4.60633 1.61281 4.60633 1.50481C4.60662 1.44478 4.61645 1.38518 4.63548 1.32824C4.71385 1.15874 4.73473 0.968276 4.69494 0.785821C4.65514 0.603366 4.55685 0.438899 4.41501 0.317431C4.27317 0.195963 4.09554 0.124141 3.90913 0.112887C3.72273 0.101632 3.53775 0.151562 3.38232 0.255083L3.37889 0.256797L3.37375 0.260226L3.35832 0.270511L3.30689 0.304797C3.04974 0.488212 2.802 0.684463 2.5646 0.892803C2.13602 1.27166 1.57716 1.83224 1.18115 2.50082C0.835466 3.0551 0.558023 3.64913 0.354861 4.26998C0.149144 4.88542 0 5.55228 0 6.11114C0 7.53744 0.514291 8.75631 1.32344 9.52604C0.822865 10.0335 0.531434 10.6969 0.351432 11.3603C6.81203e-08 12.6495 0 14.2438 0 15.4764V15.5398C0 19.0678 0.660007 21.1627 1.40744 22.409C1.78288 23.033 2.17374 23.4359 2.50117 23.6896C2.67564 23.8257 2.86552 23.9408 3.06689 24.0325C3.18334 24.075 3.30502 24.1015 3.42861 24.1113C3.57261 24.1113 3.79032 24.0325 3.79032 24.0325C3.9917 23.9408 4.18157 23.8257 4.35604 23.6896C4.68176 23.4359 5.07605 23.033 5.44977 22.409C6.19721 21.1644 6.85721 19.0678 6.85721 15.5398V15.4781C6.85721 14.2438 6.85721 12.6512 6.50578 11.3586ZM2.54917 10.7243C2.74288 10.5289 3.00174 10.3969 3.42861 10.3969C3.85718 10.3969 4.11433 10.5306 4.30804 10.7226C4.52405 10.9403 4.71091 11.2935 4.85148 11.8095C5.13605 12.8569 5.14291 14.2318 5.14291 15.5398C5.14291 18.869 4.51719 20.6313 3.9789 21.5279C3.77318 21.8707 3.57946 22.0919 3.42861 22.2307C3.21306 22.0235 3.02781 21.7869 2.87831 21.5279C2.34002 20.6296 1.7143 18.869 1.7143 15.5398C1.7143 14.2318 1.72116 12.8569 2.00573 11.8095C2.14631 11.2952 2.33317 10.9403 2.54917 10.7226V10.7243ZM3.42861 8.6826C2.7686 8.6826 1.7143 7.94888 1.7143 6.11114C1.7143 5.81457 1.80345 5.34485 1.98173 4.81342C2.1442 4.3117 2.3682 3.83204 2.6486 3.3854C2.79774 3.1334 2.99146 2.88825 3.2006 2.66368C3.31889 2.87282 3.47489 3.08368 3.68061 3.2894C3.80575 3.41454 3.96861 3.5654 4.10747 3.69569L4.32004 3.89455C4.50005 4.06941 4.6389 4.22198 4.75033 4.3917C4.95605 4.69856 5.14291 5.16313 5.14291 6.11114C5.14291 7.94888 4.08861 8.6826 3.42861 8.6826Z" fill="white"/>
</svg>
