<svg width="20" height="27" viewBox="0 0 20 27" fill="none" xmlns="http://www.w3.org/2000/svg">
<path d="M18.0183 12.1569C17.6925 11.7319 17.2958 11.3636 16.9275 10.9953C15.9783 10.1453 14.9017 9.53612 13.995 8.64362C11.8842 6.57528 11.4167 3.16112 12.7625 0.540283C11.4167 0.866117 10.2408 1.60278 9.23501 2.41028C5.56584 5.35695 4.12084 10.5561 5.84918 15.0186C5.90584 15.1603 5.96251 15.3019 5.96251 15.4861C5.96251 15.7978 5.75001 16.0811 5.46668 16.1944C5.14084 16.3361 4.80084 16.2511 4.53168 16.0245C4.45079 15.9576 4.38347 15.8758 4.33334 15.7836C2.73251 13.7578 2.47751 10.8536 3.55418 8.53028C1.18834 10.457 -0.100824 13.7153 0.0833427 16.7894C0.168343 17.4978 0.253343 18.2061 0.494176 18.9144C0.692509 19.7645 1.07501 20.6145 1.50001 21.3653C3.03001 23.8161 5.67918 25.5728 8.52668 25.9269C11.5583 26.3095 14.8025 25.7569 17.1258 23.6603C19.7183 21.3086 20.625 17.5403 19.2933 14.3103L19.1092 13.9419C18.8117 13.2903 18.0183 12.1569 18.0183 12.1569ZM13.5417 21.0819C13.145 21.4219 12.4933 21.7903 11.9833 21.9319C10.3967 22.4986 8.81001 21.7053 7.87501 20.7703C9.56084 20.3736 10.5667 19.1269 10.8642 17.8661C11.105 16.7328 10.6517 15.7978 10.4675 14.7069C10.2975 13.6586 10.3258 12.7661 10.7083 11.7886C10.9775 12.3269 11.2608 12.8653 11.6008 13.2903C12.6917 14.7069 14.4058 15.3303 14.7742 17.257C14.8308 17.4553 14.8592 17.6536 14.8592 17.8661C14.9017 19.0278 14.3917 20.3028 13.5417 21.0819Z" fill="white"/>
</svg>
