<svg width="25" height="26" viewBox="0 0 25 26" fill="none" xmlns="http://www.w3.org/2000/svg">
<path d="M12.5 0.0683594C10.0277 0.0683594 7.61099 0.801471 5.55538 2.17499C3.49976 3.54851 1.89761 5.50074 0.951511 7.78481C0.00541605 10.0689 -0.242126 12.5822 0.24019 15.007C0.722505 17.4317 1.91301 19.659 3.66117 21.4072C5.40933 23.1553 7.63661 24.3459 10.0614 24.8282C12.4861 25.3105 14.9995 25.0629 17.2835 24.1168C19.5676 23.1708 21.5198 21.5686 22.8934 19.513C24.2669 17.4574 25 15.0406 25 12.5684C25 10.9268 24.6767 9.30138 24.0485 7.78481C23.4203 6.26824 22.4996 4.89026 21.3388 3.72952C20.1781 2.56879 18.8001 1.64805 17.2835 1.01986C15.767 0.391681 14.1415 0.0683594 12.5 0.0683594ZM12.5 22.5684C10.5222 22.5684 8.58879 21.9819 6.9443 20.883C5.29981 19.7842 4.01809 18.2224 3.26121 16.3952C2.50433 14.5679 2.3063 12.5573 2.69215 10.6175C3.078 8.67764 4.03041 6.89581 5.42894 5.49729C6.82746 4.09877 8.60929 3.14636 10.5491 2.76051C12.4889 2.37465 14.4996 2.57269 16.3268 3.32956C18.1541 4.08644 19.7159 5.36816 20.8147 7.01265C21.9135 8.65715 22.5 10.5905 22.5 12.5684C22.5 15.2205 21.4464 17.7641 19.5711 19.6394C17.6957 21.5148 15.1522 22.5684 12.5 22.5684Z" fill="white"/>
<path d="M12.4961 8.81836C13.1864 8.81836 13.7461 8.25871 13.7461 7.56836C13.7461 6.878 13.1864 6.31836 12.4961 6.31836C11.8057 6.31836 11.2461 6.878 11.2461 7.56836C11.2461 8.25871 11.8057 8.81836 12.4961 8.81836Z" fill="white"/>
<path d="M12.4961 10.0679C12.1646 10.0679 11.8466 10.1996 11.6122 10.434C11.3778 10.6684 11.2461 10.9864 11.2461 11.3179V17.5679C11.2461 17.8994 11.3778 18.2173 11.6122 18.4518C11.8466 18.6862 12.1646 18.8179 12.4961 18.8179C12.8276 18.8179 13.1456 18.6862 13.38 18.4518C13.6144 18.2173 13.7461 17.8994 13.7461 17.5679V11.3179C13.7461 10.9864 13.6144 10.6684 13.38 10.434C13.1456 10.1996 12.8276 10.0679 12.4961 10.0679Z" fill="white"/>
</svg>
