<svg width="26" height="27" viewBox="0 0 26 27" fill="none" xmlns="http://www.w3.org/2000/svg">
<path d="M5.6875 3.80737C5.47201 3.80737 5.26535 3.89298 5.11298 4.04535C4.9606 4.19772 4.875 4.40438 4.875 4.61987V12.7449C4.875 12.9604 4.9606 13.167 5.11298 13.3194C5.26535 13.4718 5.47201 13.5574 5.6875 13.5574H13.8125C14.028 13.5574 14.2347 13.4718 14.387 13.3194C14.5394 13.167 14.625 12.9604 14.625 12.7449V4.61987C14.625 4.40438 14.5394 4.19772 14.387 4.04535C14.2347 3.89298 14.028 3.80737 13.8125 3.80737H5.6875ZM6.5 23.3074V15.1824H9.4185C10.231 15.1824 10.9021 15.3416 11.4286 15.6585C11.9567 15.9754 12.35 16.4369 12.6068 17.0397C12.8684 17.6426 13 18.3722 13 19.2237C13 20.0817 12.87 20.8162 12.6068 21.4256C12.3702 22.0073 11.9533 22.4977 11.4173 22.8247C10.8907 23.1465 10.2245 23.3074 9.4185 23.3074H6.5ZM9.20725 16.4921H8.08275V21.9927H9.20725C9.57937 21.9927 9.90113 21.9359 10.1741 21.8254C10.439 21.7175 10.6701 21.5408 10.8436 21.3135C11.0191 21.0827 11.1491 20.7967 11.2352 20.4555C11.3263 20.1142 11.3701 19.7145 11.3701 19.253C11.3701 18.642 11.2921 18.1317 11.1361 17.7255C11.0087 17.3474 10.7596 17.0222 10.4276 16.8009C10.1107 16.5945 9.7045 16.4921 9.20887 16.4921H9.20725Z" fill="white"/>
<path d="M4.875 0.557373C4.01305 0.557373 3.1864 0.899783 2.5769 1.50928C1.96741 2.11877 1.625 2.94542 1.625 3.80737V24.9324H0.8125C0.597012 24.9324 0.390349 25.018 0.237976 25.1703C0.0856024 25.3227 0 25.5294 0 25.7449C0 25.9604 0.0856024 26.167 0.237976 26.3194C0.390349 26.4718 0.597012 26.5574 0.8125 26.5574H18.6875C18.903 26.5574 19.1097 26.4718 19.262 26.3194C19.4144 26.167 19.5 25.9604 19.5 25.7449C19.5 25.5294 19.4144 25.3227 19.262 25.1703C19.1097 25.018 18.903 24.9324 18.6875 24.9324H17.875V18.4324C18.306 18.4324 18.7193 18.6036 19.024 18.9083C19.3288 19.2131 19.5 19.6264 19.5 20.0574V20.8699C19.5 21.5163 19.7568 22.1363 20.2139 22.5934C20.671 23.0506 21.291 23.3074 21.9375 23.3074C22.584 23.3074 23.204 23.0506 23.6611 22.5934C24.1182 22.1363 24.375 21.5163 24.375 20.8699V13.5574H25.1875C25.403 13.5574 25.6097 13.4718 25.762 13.3194C25.9144 13.167 26 12.9604 26 12.7449V7.58387C26 6.58287 26 5.26662 25.5223 4.20225C25.2568 3.58815 24.8056 3.0727 24.232 2.72837C23.6178 2.36275 22.854 2.18237 21.9375 2.18237C21.722 2.18237 21.5153 2.26798 21.363 2.42035C21.2106 2.57272 21.125 2.77938 21.125 2.99487C21.125 3.21036 21.2106 3.41702 21.363 3.5694C21.5153 3.72177 21.722 3.80737 21.9375 3.80737C22.646 3.80737 23.101 3.94712 23.4 4.12425C23.6872 4.29785 23.9115 4.55858 24.0402 4.8685C24.2791 5.4015 24.349 6.08075 24.3669 6.85425H21.9375C21.722 6.85425 21.5153 6.93985 21.363 7.09222C21.2106 7.2446 21.125 7.45126 21.125 7.66675V12.7449C21.125 12.9604 21.2106 13.167 21.363 13.3194C21.5153 13.4718 21.722 13.5574 21.9375 13.5574H22.75V20.8699C22.75 21.0854 22.6644 21.292 22.512 21.4444C22.3597 21.5968 22.153 21.6824 21.9375 21.6824C21.722 21.6824 21.5153 21.5968 21.363 21.4444C21.2106 21.292 21.125 21.0854 21.125 20.8699V20.0574C21.125 19.1954 20.7826 18.3688 20.1731 17.7593C19.5636 17.1498 18.737 16.8074 17.875 16.8074V3.80737C17.875 2.94542 17.5326 2.11877 16.9231 1.50928C16.3136 0.899783 15.487 0.557373 14.625 0.557373L4.875 0.557373ZM16.25 3.80737V24.9324H3.25V3.80737C3.25 3.3764 3.4212 2.96307 3.72595 2.65832C4.0307 2.35358 4.44402 2.18237 4.875 2.18237H14.625C15.056 2.18237 15.4693 2.35358 15.774 2.65832C16.0788 2.96307 16.25 3.3764 16.25 3.80737Z" fill="white"/>
</svg>
