<svg width="25" height="33" viewBox="0 0 25 33" fill="none" xmlns="http://www.w3.org/2000/svg">
<path d="M13.1315 32.0596L11.7168 23.3517L10.8459 31.8416L7.90685 30.2084L11.1624 18.9893L13.8931 23.4604L15.199 29.556L13.1315 32.0595V32.0596ZM2.92552 31.8019L2.40622 29.9523L0.561725 29.3532L2.41034 28.8335L3.00933 26.9885L3.52929 28.8375L5.37425 29.4372L3.52524 29.9565L2.92559 31.8019H2.92552ZM6.97232 28.118L5.04853 27.9691L0.787904 20.9705L0.512451 15.4648L5.72288 17.4795L9.11624 21.9929L8.02732 26.1733L3.83675 20.6585L6.97245 28.118H6.97232ZM16.6453 26.2084L15.515 26.0671L14.95 23.1702L14.0018 21.3923L20.0974 15.2966L22.166 15.9491L21.2951 20.8475L16.6453 26.2083L16.6453 26.2084ZM17.8637 23.4264L19.6746 21.2668L20.3373 18.5493L18.665 20.7088L17.8637 23.4264ZM9.56841 20.876L7.00997 17.4481L8.47954 10.2082L13.5959 3.89614L17.7864 9.55575L17.3515 16.5772L13.4327 20.6041L10.9292 16.7942L9.56834 20.876H9.56841ZM12.7107 17.7383L14.5157 11.4563L16.1584 9.93838L14.2971 10.194L13.5578 7.31998L13.1223 10.194L10.1111 10.5603L13.1066 11.6341L12.7108 17.7382L12.7107 17.7383ZM6.25287 16.4283L4.40173 13.4887L5.05517 7.28552L7.12326 11.4217L6.25281 16.4284L6.25287 16.4283ZM21.6763 14.9368L21.0208 12.601L18.6915 11.8444L21.0259 11.1879L21.7824 8.85862L22.4389 11.1935L24.7682 11.9506L22.4338 12.6061L21.6761 14.9369L21.6763 14.9368ZM7.47196 8.43282L6.65224 5.51161L3.7386 4.56532L6.65888 3.74421L7.60497 0.830566L8.42622 3.75085L11.3393 4.698L8.41951 5.51812L7.47189 8.43282H7.47196Z" fill="white"/>
</svg>
