<svg width="23" height="24" viewBox="0 0 23 24" fill="none" xmlns="http://www.w3.org/2000/svg">
<path d="M11.5 0.777832C5.36667 0.777832 0 5.71005 0 12.2778C0 14.9867 0.945555 17.4784 2.51722 19.4462L0 21.9762L1.80167 23.7778L4.31889 21.2606C6.35819 22.8892 8.89021 23.7768 11.5 23.7778C14.4389 23.7778 17.3906 22.6534 19.6267 20.4045C20.6977 19.3398 21.5472 18.0734 22.1262 16.6786C22.7052 15.2838 23.0022 13.7881 23 12.2778V0.777832H11.5ZM20.4444 12.2778C20.4444 14.6673 19.5117 16.9162 17.825 18.6028C16.9961 19.4357 16.0103 20.0959 14.9246 20.5455C13.839 20.9952 12.675 21.2252 11.5 21.2223C6.56778 21.2223 2.55556 17.2101 2.55556 12.2778C2.55556 9.85005 3.50111 7.57561 5.23889 5.90172C6.90435 4.2516 9.15551 3.32817 11.5 3.33339H20.4444V12.2778Z" fill="white"/>
<path d="M6.97384 13.0827L12.1488 13.5939L9.03106 17.8489C8.8905 18.0533 8.90328 18.3344 9.08217 18.5133C9.27384 18.705 9.59328 18.7177 9.79773 18.5261L16.3911 12.61C16.8127 12.2266 16.5827 11.5239 16.0077 11.4727L10.8327 10.9616L13.9505 6.70664C14.0911 6.50219 14.0783 6.22108 13.8994 6.04219C13.8047 5.94829 13.6775 5.89455 13.5442 5.89217C13.4109 5.88979 13.2818 5.93896 13.1838 6.02942L6.5905 11.9455C6.18161 12.3289 6.41161 13.0316 6.97384 13.0827Z" fill="white"/>
</svg>
