<svg width="26" height="26" viewBox="0 0 26 26" fill="none" xmlns="http://www.w3.org/2000/svg">
<path d="M18.6621 0.693359L16.3668 7.57422C16.6715 7.65039 16.966 7.74687 17.2351 7.86367L19.6269 0.693359H18.6621ZM14.95 8.33594C14.3254 8.33594 13.6195 8.42734 13.5027 8.79297L12.5734 11.5605L12.5176 11.5707L10.5422 10.2555L8.10975 12.5102L5.40311 13.4902L5.74842 15.5875L3.14842 16.7859L3.35256 20.5488L0.536743 22.2855L4.54338 23.9664L8.76991 23.4332L12.1773 25.0328L16.0367 24.4945L17.3926 23.2605L21.5312 24.7637L25.0453 23.3062L23.2984 20.4574L21.7191 19.6551L22.7906 18.675L20.739 14.4855L17.5652 14.257L18.7992 10.5602C18.7484 9.77305 17.7683 9.14844 17.1539 8.83359L15.7066 11.1035C15.6508 11.1797 15.6609 11.1289 15.6457 11.0578L15.8539 8.40195C15.6762 8.37148 15.3308 8.33594 14.95 8.33594ZM10.6336 11.4133L12.3144 12.5355L15.0515 12.0887L15.7828 14.5109L13.975 15.684L11.7812 14.841L13.843 17.3141L16.9203 15.1254L20.15 15.359L20.8305 16.7402L17.8394 17.4816L21.2723 17.6391L21.6734 18.4617L20.1348 19.8785L22.6586 21.1582L23.7047 22.8695L21.5109 23.7785L17.1894 22.2145L15.6305 23.6313L12.3195 24.0883L8.92225 22.4887L4.67135 23.032L2.53042 22.1332L4.29506 21.0465L4.09499 17.3547L6.04295 16.4559L7.7492 18.4617L9.5621 16.8824L7.58163 17.0195L6.75389 16.075L6.42889 14.0895L7.59178 13.668L9.90741 13.7543L8.89178 13.0281L10.6336 11.4133ZM17.6515 19.6398L14.2898 20.6656L12.4363 19.9344L14.9957 22.118L17.6515 19.6398ZM5.95663 20.5336L7.99803 21.7879L10.8672 21.6457L5.95663 20.5336Z" fill="white"/>
</svg>
