<svg width="26" height="27" viewBox="0 0 26 27" fill="none" xmlns="http://www.w3.org/2000/svg">
<path d="M22.3909 0.666992H9.25396C7.80495 0.666992 6.62656 1.83309 6.62656 3.26699V10.5288L0.442983 16.6479C0.259316 16.8297 0.134243 17.0613 0.0835772 17.3135C0.032911 17.5656 0.0589263 17.8269 0.158334 18.0644C0.257742 18.302 0.426078 18.505 0.642063 18.6478C0.858048 18.7907 1.11198 18.8669 1.37177 18.867V25.367C1.37177 25.7118 1.51018 26.0424 1.75654 26.2862C2.00291 26.53 2.33705 26.667 2.68547 26.667H23.7046C24.0531 26.667 24.3872 26.53 24.6336 26.2862C24.8799 26.0424 25.0183 25.7118 25.0183 25.367V3.26699C25.0183 1.83309 23.84 0.666992 22.3909 0.666992ZM11.8814 24.067H3.99917V16.8052L7.94026 12.9052L11.8814 16.8052V24.067ZM22.3909 24.067H14.5088V18.867C14.7688 18.8676 15.0232 18.7917 15.2396 18.6489C15.456 18.5062 15.6246 18.303 15.7242 18.0652C15.8237 17.8275 15.8496 17.5658 15.7985 17.3135C15.7475 17.0611 15.6219 16.8295 15.4375 16.6479L9.25396 10.5288V3.26699H22.3909V24.067Z" fill="white"/>
<path d="M11.8822 4.68481H14.5096V7.28481H11.8822V4.68481ZM17.137 4.68481H19.7644V7.28481H17.137V4.68481ZM17.137 9.92512H19.7644V12.4848H17.137V9.92512ZM17.137 15.0848H19.7644V17.6848H17.137V15.0848ZM6.62744 16.3848H9.25484V18.9848H6.62744V16.3848Z" fill="white"/>
</svg>
